<svg xmlns="http://www.w3.org/2000/svg" xmlns:xlink="http://www.w3.org/1999/xlink" viewBox="0 0 150 150">
  <defs>
    <style>
      .cls-1, .cls-4 {
        fill: #fff;
      }

      .cls-1 {
        stroke: #707070;
      }

      .cls-2 {
        clip-path: url(#clip-path);
      }

      .cls-3 {
        fill: #aefbff;
      }

      .cls-3, .cls-4, .cls-5 {
        stroke: #00acc1;
        stroke-linecap: round;
        stroke-linejoin: round;
        stroke-width: 1.517px;
      }

      .cls-5 {
        fill: none;
      }

      .cls-6 {
        fill: #00acc1;
      }
    </style>
    <clipPath id="clip-path">
      <circle id="Ellipse_2" data-name="Ellipse 2" class="cls-1" cx="75" cy="75" r="75" transform="translate(885 3564)"/>
    </clipPath>
  </defs>
  <g id="Groupe_de_masques_1" data-name="Groupe de masques 1" class="cls-2" transform="translate(-885 -3564)">
    <g id="chilly_blog" transform="translate(884.152 3563.152)">
      <g id="Calque_1" data-name="Calque 1">
        <circle id="Ellipse_1" data-name="Ellipse 1" class="cls-3" cx="74.242" cy="74.242" r="74.242" transform="translate(1.606 1.606)"/>
      </g>
      <g id="Calque_3" data-name="Calque 3">
        <path id="Tracé_1" data-name="Tracé 1" class="cls-4" d="M74.113,109.2s2.186-2.288,1.92-2.288h-27l-34.693,6.761a.758.758,0,0,0-.14,1.438L48.33,128.983a1.247,1.247,0,0,0,1.274-.193L62.65,118"/>
        <line id="Ligne_2" data-name="Ligne 2" class="cls-5" y1="8.588" x2="14.24" transform="translate(44.89 113.236)"/>
        <line id="Ligne_3" data-name="Ligne 3" class="cls-5" y1="8.231" x2="17.735" transform="translate(36.953 110.372)"/>
        <line id="Ligne_4" data-name="Ligne 4" class="cls-5" y1="6.458" x2="20.787" transform="translate(28.633 108.919)"/>
        <path id="Tracé_2" data-name="Tracé 2" class="cls-4" d="M48.391,84.672,12.742,71.89a.636.636,0,0,0-.849.62l1.857,41.73,35.277-7.357.393-19.81C49.42,84.851,48.775,84.807,48.391,84.672Z"/>
        <path id="Tracé_3" data-name="Tracé 3" class="cls-3" d="M46.149,86.4,16,76.035a.532.532,0,0,0-.718.508l1.57,33.828,29.829-5.965V87.124a.774.774,0,0,0-.532-.725Z"/>
      </g>
      <g id="sloth">
        <path id="Tracé_4" data-name="Tracé 4" class="cls-4" d="M107.282,72.85a.745.745,0,0,0-.008-.129c0-.143-.012-.285-.024-.429a2.587,2.587,0,0,0,.011.287h0c.231,7.162-.96,17.651-5.874,23.344-.117.137-.237.27-.358.4-2.394,2.565-7.04,4.49-10.315,5.461a54.147,54.147,0,0,1-14.032,2.124,27.567,27.567,0,0,1-19.314-8c-1.573-1.517-5.634-5.428-5.39-7.849.276-2.731,5.537-2.544,6.068-5.749.466-2.847-4.068-5.538-5.57-7.749a24.438,24.438,0,0,1-3.392-7.6,30.616,30.616,0,0,1,1.183-18.507c5.22-13.325,22.148-19.241,34.937-22.8,15.333-4.254,31.236-4.876,46.214.959,26.433,25.84,20.277,66.98,7.952,87.679-11.207,18.822-39.94,14.725-52,12.742a62.961,62.961,0,0,1-22.516-8.246h0c-.036-.021-.073-.042-.108-.065l-.2-.123a59.118,59.118,0,0,1-14.108-12.114l-.024-.027.093.024c1.238.332.19.246-.068,0l-.024-.027.093.024c3.019.78,6.188,1.5,9.426,2.052h0c11.106,1.908,23.038,1.919,32.624-4.008a28.781,28.781,0,0,0,8.833-8.606,31.915,31.915,0,0,0,2.973-5.663,39.27,39.27,0,0,0,2.368-8.8,47.552,47.552,0,0,0,.495-5.229c.018-.455-.023-3.915.027-3.657h0a.689.689,0,0,0,.014.14"/>
        <path id="Tracé_5" data-name="Tracé 5" class="cls-3" d="M107.249,72.292c-.184-11.266-19.934-33.61-42.273-15.406-7.309,5.956-8.818,35.042,12.742,26.583,5.722-2.875,27.824,2.882,22.8,13.384C100.515,96.853,107.53,89.147,107.249,72.292Z"/>
        <path id="Tracé_6" data-name="Tracé 6" class="cls-5" d="M78.592,98.079s8.723,0,8.622-6.706"/>
        <path id="Tracé_7" data-name="Tracé 7" class="cls-6" d="M70.944,71.239a.587.587,0,0,1,.546-1c4.137,1.113,11.442,3.686,9.557,5.588C78.676,78.228,73.741,73.759,70.944,71.239Z"/>
        <path id="Tracé_8" data-name="Tracé 8" class="cls-6" d="M54.668,90.9c1.924-1.767,5.88-5.972-1.415-4.854,0,0-2.462,1.55-.749,3.4a9.524,9.524,0,0,1,1.044,1.3.737.737,0,0,0,1.121.149Z"/>
        <path id="Tracé_9" data-name="Tracé 9" class="cls-6" d="M64.548,118.6A59.117,59.117,0,0,1,50.44,106.489l-.024-.027.093.024c3.019.78,6.188,1.5,9.426,2.052h0S60.845,116.161,64.548,118.6Z"/>
      </g>
    </g>
  </g>
</svg>
