<svg xmlns="http://www.w3.org/2000/svg" viewBox="0 0 982.45 991"><defs><style>.cls-1,.cls-5{fill:#fff;}.cls-2{fill:#00acc1;}.cls-3{fill:#aefbff;}.cls-4,.cls-6{fill:none;}.cls-4,.cls-5,.cls-6{stroke:#00acc1;stroke-linejoin:round;stroke-width:17px;}.cls-4{stroke-linecap:round;}</style></defs><title>logo_sloth</title><g id="sloth"><path class="cls-1" d="M498.57,991A481.15,481.15,0,0,1,311.34,66.75,481.15,481.15,0,0,1,685.8,953.2,478,478,0,0,1,498.57,991Z" transform="translate(-7.55 -10)"/><path class="cls-2" d="M498.57,39A471.15,471.15,0,0,1,681.9,944,471.15,471.15,0,0,1,315.23,76,468.05,468.05,0,0,1,498.57,39m0-20c-271.18,0-491,219.84-491,491s219.84,491,491,491,491-219.84,491-491S769.75,19,498.57,19Z" transform="translate(-7.55 -10)"/><path class="cls-1" d="M593,795.39A388.55,388.55,0,0,1,441.86,49a389,389,0,0,1,385,47.73A388.43,388.43,0,0,1,593,795.39Z" transform="translate(-7.55 -10)"/><path class="cls-2" d="M593,27A378.69,378.69,0,1,1,445.17,56.85,379.32,379.32,0,0,1,593,27m0-17C373.83,10,196.11,187.72,196.11,407S373.83,803.89,593,803.89a395.12,395.12,0,0,0,220.43-66.78C919.92,665.91,990,544.61,990,407a396.62,396.62,0,0,0-16.75-114.43C924.13,129.07,772.5,10,593,10Z" transform="translate(-7.55 -10)"/><path class="cls-3" d="M349.52,705.17c-30.23-17.23-71.92-62.32-78.46-92.62-17.37-80.46-39.53-228.89,7.2-319l.09-.18c21.88-44.76,62.67-100,132.74-108.86a171.56,171.56,0,0,1,21.47-1.36c37.3,0,73.15,12.47,101,35.11s45.63,54.12,50,88.46a132.07,132.07,0,0,1-5.14,56.69,140.65,140.65,0,0,1-14.73,31.88,110.8,110.8,0,0,1-19.19,22.95c-10.94,10.05-23.69,20.25-34.71,28.9C463.75,483.23,378.15,550.4,371.3,633c-2.72,32.78,6.89,65.71,28.61,98.28Z" transform="translate(-7.55 -10)"/><path class="cls-2" d="M432.58,174.66v17c35.35,0,69.29,11.79,95.57,33.2S571,275.64,575.07,307.8a123.63,123.63,0,0,1-4.81,53.05,132.14,132.14,0,0,1-13.84,30A102.3,102.3,0,0,1,538.7,412c-10.72,9.85-23.31,19.92-34.21,28.47C457.48,477.34,370,546,362.83,632.28c-2.17,26.14,3,52.28,15.39,78.18L353.59,697.7c-28.55-16.34-68.3-59.53-74.22-86.95-8.21-38-18.39-95.8-20.21-154.84-2.07-67.05,6.9-120.36,26.65-158.44l.18-.36c21-42.88,59.86-95.76,126.17-104.16a163.15,163.15,0,0,1,20.41-1.29v-17m0,0A179.62,179.62,0,0,0,410,176.09c-68.57,8.68-113,59.62-139.31,113.56-48.06,92.66-25.41,243.88-8,324.7,7.41,34.31,52.19,81,82.71,98.3l80.72,41.81a48.33,48.33,0,0,1,6.1,4,11.42,11.42,0,0,0-1.43-1.64C310.14,624.6,428,522.07,515,453.84c12.76-10,24.79-19.75,35.22-29.33a119.22,119.22,0,0,0,20.65-24.71A149,149,0,0,0,586.47,366a141,141,0,0,0,5.46-60.31c-9.62-76-78.71-131-159.36-131Z" transform="translate(-7.55 -10)"/><path class="cls-3" d="M808.47,729.8c31.1-28.8,48.19-59.87,50.87-92.6C865,568.33,808,506.06,762.19,456c-8.62-9.42-18.54-20.46-26.78-31a99.78,99.78,0,0,1-13.68-23.25,127.25,127.25,0,0,1-8.42-30.58,119.35,119.35,0,0,1,3.8-51.24c7.93-26.54,24.53-49.15,48-65.37,23.15-16,50.88-24.46,80.2-24.46a152.15,152.15,0,0,1,43.56,6.42c31.34,9.36,57.1,29.4,76.59,59.58A389,389,0,0,1,809.73,729.39Z" transform="translate(-7.55 -10)"/><path class="cls-2" d="M845.3,221.6v17h0a143.64,143.64,0,0,1,41.13,6.07c29,8.66,52.95,27.17,71.22,55A380.61,380.61,0,0,1,856,681.22a124.77,124.77,0,0,0,11.78-43.32c5.94-72.56-52.44-136.35-99.35-187.61-8.51-9.3-18.3-20.19-26.36-30.52a91.22,91.22,0,0,1-12.52-21.25A118.64,118.64,0,0,1,721.72,370a110.91,110.91,0,0,1,3.53-47.63c7.37-24.67,22.82-45.7,44.68-60.81,21.41-14.8,48.18-23,75.37-23v-17m0,0c-62.49,0-118.82,37.29-136.34,95.9a128.18,128.18,0,0,0-4.07,54.88,135.56,135.56,0,0,0,9,32.63,108.13,108.13,0,0,0,14.84,25.23c7.92,10.14,17.26,20.65,27.21,31.52,67.81,74.1,158.88,174.66,31,275.23a4.3,4.3,0,0,0,2.54,7.68,4.56,4.56,0,0,0,1.37-.22l22.65-7.34C919.92,665.91,990,544.61,990,406.95a396.62,396.62,0,0,0-16.75-114.43c-18.49-29-44.93-53.08-82-64.14a160.6,160.6,0,0,0-46-6.78Z" transform="translate(-7.55 -10)"/><path class="cls-2" d="M397.39,380.13c-23.75,0-39.13-7-40.29-13.67-.75-4.37,4.14-10.64,12.77-16.36,11-7.31,26.6-13,43.83-15.93a141.53,141.53,0,0,1,23.84-2.1c23.75,0,39.13,7,40.29,13.67.75,4.37-4.14,10.64-12.77,16.36-11,7.31-26.6,13-43.83,15.93A141.52,141.52,0,0,1,397.39,380.13Z" transform="translate(-7.55 -10)"/><path class="cls-2" d="M437.55,340.57c9.17,0,17.4,1.08,23.8,3.12a24.11,24.11,0,0,1,7.56,3.59c-1.23,1.92-4.65,5.66-12.14,9.94-9.82,5.61-23,10-37,12.43a133,133,0,0,1-22.4,2c-9.17,0-17.4-1.08-23.81-3.12a24.11,24.11,0,0,1-7.56-3.59c1.23-1.92,4.65-5.66,12.14-9.94,9.82-5.61,23-10,37-12.43a133.05,133.05,0,0,1,22.41-2h0m0-17a150.37,150.37,0,0,0-25.28,2.22c-38,6.51-66.41,25.36-63.54,42.1,2.21,12.86,22.26,20.73,48.66,20.73a150.33,150.33,0,0,0,25.28-2.22c38-6.51,66.41-25.36,63.54-42.1-2.21-12.86-22.26-20.73-48.66-20.73Z" transform="translate(-7.55 -10)"/><path class="cls-2" d="M865.4,379.85a142.91,142.91,0,0,1-22.05-1.77c-17.26-2.71-32.91-8.14-44.05-15.29-8.71-5.59-13.7-11.79-13-16.17,1.1-7,17.07-14.26,41.9-14.26a142.93,142.93,0,0,1,22.05,1.77c36.94,5.79,58.47,22.51,57.06,31.47C906.21,372.6,890.23,379.85,865.4,379.85Z" transform="translate(-7.55 -10)"/><path class="cls-2" d="M828.2,323.85v17h0a134.39,134.39,0,0,1,20.73,1.67c14.06,2.2,27.25,6.43,37.15,11.89,7.58,4.18,11.05,7.89,12.3,9.79-3.14,2.53-13.72,7.15-33,7.15a134.41,134.41,0,0,1-20.74-1.67c-14.06-2.2-27.25-6.43-37.15-11.89-7.58-4.18-11.05-7.89-12.3-9.79,3.14-2.53,13.72-7.15,33-7.15v-17m0,0c-27.35,0-48.23,8.24-50.3,21.45C775.26,362.07,804,380.51,842,386.47a151.53,151.53,0,0,0,23.37,1.87c27.35,0,48.23-8.24,50.3-21.45,2.63-16.78-26.09-35.21-64.14-41.18a151.52,151.52,0,0,0-23.37-1.87Z" transform="translate(-7.55 -10)"/><path class="cls-2" d="M629.2,507.29a42.41,42.41,0,0,1-16.2-3.2c-13.15-5.41-55.8-24.86-52.29-48,2.61-17.26,38-23.4,70.26-23.4,2.35,0,4.71,0,7,.09l1.46,0,1.46,0c2.31-.06,4.67-.09,7-.09,32.25,0,67.65,6.15,70.27,23.4,3.51,23.17-39.14,42.62-52.3,48a42.43,42.43,0,0,1-16.2,3.19Z" transform="translate(-7.55 -10)"/><path class="cls-2" d="M647.93,441.17c38.59,0,60.67,8.34,61.86,16.18,1.09,7.17-6.66,14.94-13.35,20.18-11.25,8.82-26,15.51-33.77,18.71a33.94,33.94,0,0,1-13,2.56H629.2a33.94,33.94,0,0,1-13-2.56c-7.78-3.2-22.52-9.89-33.77-18.71-6.69-5.25-14.44-13-13.35-20.18,1.19-7.84,23.27-16.18,61.85-16.18,2.27,0,4.56,0,6.79.09l1.69,0,1.69,0c2.23-.06,4.52-.09,6.79-.09h0m0-17c-2.68,0-5.12,0-7.24.1l-1.24,0-1.24,0c-2.12-.06-4.55-.1-7.24-.1-25.87,0-74.57,3.64-78.66,30.63C548,483,589.88,503.78,609.77,512a51,51,0,0,0,19.43,3.83h20.5A51,51,0,0,0,669.13,512C689,503.78,730.89,483,726.6,454.8c-4.1-27-52.8-30.63-78.67-30.63Z" transform="translate(-7.55 -10)"/><path class="cls-4" d="M526,525c13,11,50.33,37,107,37,40,0,83.51-17.14,113.61-45.14" transform="translate(-7.55 -10)"/></g><g id="soda"><path class="cls-5" d="M637.06,751.11c3.2-55.68-122.49-154.36-177.69-145.07L299.31,896.31S325,961.47,396,975.23Z" transform="translate(-7.55 -10)"/><path class="cls-3" d="M526,854.35c16-152.26-82.23-220-82.23-220l-15.08,27.35s81.44,101.49,69.17,217.15Z" transform="translate(-7.55 -10)"/><path class="cls-3" d="M438.54,935.66c3.37-105.81-61.72-179.9-61.72-179.9L352.44,800s52,64.75,48.59,170.56Z" transform="translate(-7.55 -10)"/><path class="cls-6" d="M637.06,751.11c3.2-55.68-122.49-154.36-177.69-145.07L299.31,896.31s66.3.75,96.66,78.91Z" transform="translate(-7.55 -10)"/><path class="cls-6" d="M561.34,647.41s110.52-51.84,82-70.81c-25.26-16.79-15.11-14.49-15.11-14.49" transform="translate(-7.55 -10)"/><path class="cls-6" d="M612.4,774C574.46,670.41,449.67,634.33,449.67,634.33" transform="translate(-7.55 -10)"/></g></svg>