<svg xmlns="http://www.w3.org/2000/svg" xmlns:xlink="http://www.w3.org/1999/xlink" viewBox="0 0 339.789 80.251">
  <defs>
    <style>
      .cls-1 {
        fill: #fff;
        stroke: #707070;
      }

      .cls-2 {
        fill: #9c9c9c;
      }

      .cls-3 {
        clip-path: url(#clip-path);
      }

      .cls-4 {
        fill: none;
        stroke: #9c9c9c;
        stroke-miterlimit: 10;
        stroke-width: 3.435px;
      }

      .cls-5 {
        clip-path: url(#clip-path-2);
      }
    </style>
    <clipPath id="clip-path">
      <circle id="Ellipse_65" data-name="Ellipse 65" class="cls-1" cx="40" cy="40" r="40" transform="translate(17031 -2509)"/>
    </clipPath>
    <clipPath id="clip-path-2">
      <circle id="Ellipse_68" data-name="Ellipse 68" class="cls-1" cx="40" cy="40" r="40" transform="translate(1408 -39)"/>
    </clipPath>
  </defs>
  <g id="rs" transform="translate(-392.211 -55)">
    <g id="facebook" transform="translate(392.213 55.269)">
      <g id="Calque_1" data-name="Calque 1" transform="translate(-0.002 -0.018)">
        <path id="Tracé_57" data-name="Tracé 57" class="cls-2" d="M887.385,502.6a1.494,1.494,0,0,0,1.047-.323,1.211,1.211,0,0,0,.458-.93,1.276,1.276,0,0,0-.4-.959,1.446,1.446,0,0,0-1.01-.392,1.6,1.6,0,0,0-.289.026l-.032,1.267-.016.634c-.012.211-.031.421-.046.632A1.627,1.627,0,0,0,887.385,502.6Z" transform="translate(-808.891 -460)"/>
        <path id="Tracé_58" data-name="Tracé 58" class="cls-2" d="M884.733,529.09a1.473,1.473,0,0,0,1.06-.252,1.227,1.227,0,0,0,.188-1.882,1.472,1.472,0,0,0-.986-.458,1.594,1.594,0,0,0-.289.007l-.1,1.264-.158,1.257A1.636,1.636,0,0,0,884.733,529.09Z" transform="translate(-806.501 -483.895)"/>
        <path id="Tracé_59" data-name="Tracé 59" class="cls-2" d="M880.448,555.368a1.446,1.446,0,0,0,1.068-.182,1.276,1.276,0,0,0,.582-.861,1.256,1.256,0,0,0-.02-.536,1.221,1.221,0,0,0-.245-.468,1.491,1.491,0,0,0-.961-.525,1.59,1.59,0,0,0-.289-.013l-.08.629-.111.624-.223,1.247A1.651,1.651,0,0,0,880.448,555.368Z" transform="translate(-802.641 -507.603)"/>
        <path id="Tracé_60" data-name="Tracé 60" class="cls-2" d="M874.266,581.346a1.49,1.49,0,0,0,1.09-.1,1.222,1.222,0,0,0,.41-.335,1.255,1.255,0,0,0,.229-.485,1.28,1.28,0,0,0-.2-1.02,1.445,1.445,0,0,0-.911-.589,1.61,1.61,0,0,0-.288-.032l-.286,1.235-.143.617-.171.611A1.629,1.629,0,0,0,874.266,581.346Z" transform="translate(-797.077 -531.049)"/>
        <path id="Tracé_61" data-name="Tracé 61" class="cls-2" d="M866.373,606.928a1.465,1.465,0,0,0,1.088-.033,1.3,1.3,0,0,0,.706-.769,1.276,1.276,0,0,0-.14-1.034,1.472,1.472,0,0,0-.876-.649,1.6,1.6,0,0,0-.285-.052c-.117.405-.227.814-.349,1.218l-.406,1.2A1.646,1.646,0,0,0,866.373,606.928Z" transform="translate(-789.961 -554.145)"/>
        <path id="Tracé_62" data-name="Tracé 62" class="cls-2" d="M856.89,632.039a1.555,1.555,0,0,0,.559.127,1.469,1.469,0,0,0,.276-.016,1.348,1.348,0,0,0,.256-.069,1.276,1.276,0,0,0,.74-.726,1.261,1.261,0,0,0,.087-.529,1.187,1.187,0,0,0-.139-.506,1.5,1.5,0,0,0-.836-.709,1.588,1.588,0,0,0-.28-.071l-.1.3-.051.15-.058.147-.233.589-.233.589c-.08.2-.149.393-.24.589A1.634,1.634,0,0,0,856.89,632.039Z" transform="translate(-781.421 -576.827)"/>
        <path id="Tracé_63" data-name="Tracé 63" class="cls-2" d="M845.584,656.553a1.48,1.48,0,0,0,1.086.117,1.216,1.216,0,0,0,.8-.669,1.29,1.29,0,0,0,.008-1.041,1.454,1.454,0,0,0-.776-.76,1.6,1.6,0,0,0-.275-.089l-.522,1.154-.131.289c-.045.1-.1.188-.143.283l-.289.564A1.642,1.642,0,0,0,845.584,656.553Z" transform="translate(-771.23 -598.985)"/>
        <path id="Tracé_64" data-name="Tracé 64" class="cls-2" d="M832.854,680.268a1.454,1.454,0,0,0,1.069.185,1.288,1.288,0,0,0,.84-.614,1.213,1.213,0,0,0,.08-1.038,1.482,1.482,0,0,0-.728-.814,1.6,1.6,0,0,0-.268-.108l-.289.564c-.049.1-.1.189-.147.281l-.158.275-.632,1.1A1.648,1.648,0,0,0,832.854,680.268Z" transform="translate(-759.759 -620.422)"/>
        <path id="Tracé_65" data-name="Tracé 65" class="cls-2" d="M818.507,703.266a1.494,1.494,0,0,0,1.063.264,1.365,1.365,0,0,0,.26-.063,1.271,1.271,0,0,0,.769-1.521,1.459,1.459,0,0,0-.669-.86,1.594,1.594,0,0,0-.259-.126l-.079.137-.085.133-.171.267-.342.534-.339.53c-.115.178-.242.346-.364.519A1.638,1.638,0,0,0,818.507,703.266Z" transform="translate(-746.835 -641.237)"/>
        <path id="Tracé_66" data-name="Tracé 66" class="cls-2" d="M802.661,725.229a1.467,1.467,0,0,0,1.037.33,1.228,1.228,0,0,0,1.133-1.514,1.472,1.472,0,0,0-.609-.9,1.6,1.6,0,0,0-.251-.143l-.735,1.032-.785,1A1.653,1.653,0,0,0,802.661,725.229Z" transform="translate(-732.55 -661.114)"/>
        <path id="Tracé_67" data-name="Tracé 67" class="cls-2" d="M785.544,746.219a1.557,1.557,0,0,0,.485.3,1.475,1.475,0,0,0,.265.077,1.349,1.349,0,0,0,.265.02,1.276,1.276,0,0,0,.939-.44,1.261,1.261,0,0,0,.257-.47,1.184,1.184,0,0,0,.035-.524,1.5,1.5,0,0,0-.553-.946,1.592,1.592,0,0,0-.24-.159l-.2.249c-.065.083-.13.167-.2.245l-.418.479-.415.479c-.139.158-.273.323-.422.473A1.639,1.639,0,0,0,785.544,746.219Z" transform="translate(-717.128 -680.125)"/>
        <path id="Tracé_68" data-name="Tracé 68" class="cls-2" d="M767.029,766.091a1.478,1.478,0,0,0,.982.468,1.221,1.221,0,0,0,.974-.368,1.29,1.29,0,0,0,.351-.982,1.455,1.455,0,0,0-.48-.974,1.6,1.6,0,0,0-.23-.176l-.875.918-.219.23-.224.221-.458.438A1.643,1.643,0,0,0,767.029,766.091Z" transform="translate(-700.444 -698.144)"/>
        <path id="Tracé_69" data-name="Tracé 69" class="cls-2" d="M747.366,784.747a1.452,1.452,0,0,0,.947.528,1.286,1.286,0,0,0,1-.3,1.17,1.17,0,0,0,.319-.431,1.349,1.349,0,0,0,.1-.521,1.482,1.482,0,0,0-.419-1.009,1.6,1.6,0,0,0-.217-.19c-.6.6-1.253,1.133-1.89,1.689a1.647,1.647,0,0,0,.166.238Z" transform="translate(-682.723 -715.062)"/>
        <path id="Tracé_70" data-name="Tracé 70" class="cls-2" d="M726.516,802.183a1.491,1.491,0,0,0,.917.6,1.215,1.215,0,0,0,1.01-.24,1.276,1.276,0,0,0,.485-.918,1.373,1.373,0,0,0-.067-.531,1.556,1.556,0,0,0-.28-.5,1.586,1.586,0,0,0-.2-.2c-.327.268-.664.524-.994.785l-.5.393c-.171.125-.344.245-.515.368A1.637,1.637,0,0,0,726.516,802.183Z" transform="translate(-663.938 -730.908)"/>
        <path id="Tracé_71" data-name="Tracé 71" class="cls-2" d="M704.65,818.113a1.465,1.465,0,0,0,.87.654,1.3,1.3,0,0,0,1.032-.16,1.276,1.276,0,0,0,.538-.9,1.472,1.472,0,0,0-.278-1.053,1.592,1.592,0,0,0-.189-.218c-.346.243-.687.491-1.035.731l-1.067.687A1.638,1.638,0,0,0,704.65,818.113Z" transform="translate(-644.232 -745.383)"/>
        <path id="Tracé_72" data-name="Tracé 72" class="cls-2" d="M681.853,832.632a1.473,1.473,0,0,0,.826.716,1.276,1.276,0,0,0,1.031-.107,1.244,1.244,0,0,0,.607-.841,1.5,1.5,0,0,0-.21-1.08,1.584,1.584,0,0,0-.175-.23c-.351.236-.722.439-1.088.65l-.55.316c-.182.105-.365.213-.555.305A1.623,1.623,0,0,0,681.853,832.632Z" transform="translate(-623.688 -758.595)"/>
        <path id="Tracé_73" data-name="Tracé 73" class="cls-2" d="M658.206,845.707a1.478,1.478,0,0,0,.775.768,1.342,1.342,0,0,0,.52.1,1.132,1.132,0,0,0,.266-.03,1.267,1.267,0,0,0,.255-.1,1.291,1.291,0,0,0,.656-.81,1.456,1.456,0,0,0-.132-1.08,1.612,1.612,0,0,0-.159-.241l-1.128.578c-.1.048-.187.1-.283.143l-.281.131-.577.261A1.636,1.636,0,0,0,658.206,845.707Z" transform="translate(-602.387 -770.526)"/>
        <path id="Tracé_74" data-name="Tracé 74" class="cls-2" d="M633.816,857.146a1.451,1.451,0,0,0,.719.813,1.287,1.287,0,0,0,1.039.044,1.178,1.178,0,0,0,.444-.3,1.352,1.352,0,0,0,.267-.459,1.483,1.483,0,0,0-.061-1.091,1.584,1.584,0,0,0-.141-.251c-.763.365-1.558.653-2.342.968A1.64,1.64,0,0,0,633.816,857.146Z" transform="translate(-580.4 -780.97)"/>
        <path id="Tracé_75" data-name="Tracé 75" class="cls-2" d="M608.75,867.025a1.5,1.5,0,0,0,.666.871,1.361,1.361,0,0,0,.242.114,1.258,1.258,0,0,0,.785-.007,1.276,1.276,0,0,0,.763-.7,1.454,1.454,0,0,0,.015-1.089,1.585,1.585,0,0,0-.124-.26c-.1.041-.2.074-.294.107l-.3.1-.6.206-.6.2c-.2.067-.405.118-.609.178A1.637,1.637,0,0,0,608.75,867.025Z" transform="translate(-557.809 -790.033)"/>
        <path id="Tracé_76" data-name="Tracé 76" class="cls-2" d="M583.248,875.07a1.473,1.473,0,0,0,.6.907,1.228,1.228,0,0,0,1.831-.473,1.466,1.466,0,0,0,.088-1.085,1.6,1.6,0,0,0-.106-.269l-1.219.346-1.235.287A1.643,1.643,0,0,0,583.248,875.07Z" transform="translate(-534.83 -797.428)"/>
        <path id="Tracé_77" data-name="Tracé 77" class="cls-2" d="M557.363,881.52a1.444,1.444,0,0,0,.539.941,1.276,1.276,0,0,0,1.008.248,1.211,1.211,0,0,0,.851-.595,1.492,1.492,0,0,0,.161-1.08,1.6,1.6,0,0,0-.087-.275l-.617.141-.624.111-1.248.223A1.627,1.627,0,0,0,557.363,881.52Z" transform="translate(-511.503 -803.389)"/>
        <path id="Tracé_78" data-name="Tracé 78" class="cls-2" d="M531.091,886.169a1.491,1.491,0,0,0,.475.982,1.231,1.231,0,0,0,.455.27,1.256,1.256,0,0,0,.534.046,1.282,1.282,0,0,0,.889-.539,1.447,1.447,0,0,0,.236-1.057,1.609,1.609,0,0,0-.069-.281l-1.259.164-.629.079-.632.048A1.627,1.627,0,0,0,531.091,886.169Z" transform="translate(-487.821 -807.745)"/>
        <path id="Tracé_79" data-name="Tracé 79" class="cls-2" d="M504.638,888.969a1.472,1.472,0,0,0,.408,1.009,1.226,1.226,0,0,0,1.889-.1,1.472,1.472,0,0,0,.305-1.045,1.593,1.593,0,0,0-.05-.285l-1.264.1-1.267.031A1.643,1.643,0,0,0,504.638,888.969Z" transform="translate(-463.97 -810.415)"/>
        <path id="Tracé_80" data-name="Tracé 80" class="cls-2" d="M478.06,889.883a1.447,1.447,0,0,0,.341,1.033,1.276,1.276,0,0,0,.938.446,1.209,1.209,0,0,0,.952-.412,1.493,1.493,0,0,0,.375-1.03,1.586,1.586,0,0,0-.03-.287l-.634.016-.634-.017L478.1,889.6A1.651,1.651,0,0,0,478.06,889.883Z" transform="translate(-439.999 -811.362)"/>
        <path id="Tracé_81" data-name="Tracé 81" class="cls-2" d="M451.529,887.564a1.494,1.494,0,0,0,.27,1.063,1.213,1.213,0,0,0,.907.5,1.276,1.276,0,0,0,.982-.349,1.445,1.445,0,0,0,.442-.99,1.581,1.581,0,0,0-.012-.288l-1.264-.1-.632-.048c-.21-.022-.419-.052-.629-.078A1.632,1.632,0,0,0,451.529,887.564Z" transform="translate(-416.064 -809.269)"/>
        <path id="Tracé_82" data-name="Tracé 82" class="cls-2" d="M425.137,883.619a1.472,1.472,0,0,0,.2,1.071,1.227,1.227,0,0,0,1.865.284,1.472,1.472,0,0,0,.508-.963,1.594,1.594,0,0,0,.008-.289l-1.257-.16-1.248-.222A1.646,1.646,0,0,0,425.137,883.619Z" transform="translate(-392.247 -805.716)"/>
        <path id="Tracé_83" data-name="Tracé 83" class="cls-2" d="M398.993,878.031a1.445,1.445,0,0,0,.127,1.08,1.276,1.276,0,0,0,.829.625,1.209,1.209,0,0,0,1.016-.213,1.492,1.492,0,0,0,.573-.933,1.587,1.587,0,0,0,.027-.288l-.624-.112-.62-.145-1.235-.285A1.631,1.631,0,0,0,398.993,878.031Z" transform="translate(-368.648 -800.684)"/>
        <path id="Tracé_84" data-name="Tracé 84" class="cls-2" d="M373.258,870.448a1.488,1.488,0,0,0,.05,1.093,1.276,1.276,0,0,0,.312.428,1.257,1.257,0,0,0,.472.252,1.283,1.283,0,0,0,1.031-.146,1.447,1.447,0,0,0,.632-.883,1.608,1.608,0,0,0,.047-.286l-1.219-.346c-.2-.059-.407-.112-.609-.177l-.6-.2A1.636,1.636,0,0,0,373.258,870.448Z" transform="translate(-345.414 -793.848)"/>
        <path id="Tracé_85" data-name="Tracé 85" class="cls-2" d="M348.074,861.4a1.461,1.461,0,0,0-.022,1.087,1.3,1.3,0,0,0,.733.743,1.127,1.127,0,0,0,.534.069,1.337,1.337,0,0,0,.507-.155,1.472,1.472,0,0,0,.693-.842,1.589,1.589,0,0,0,.066-.282l-.6-.2-.3-.1-.15-.051-.147-.058-1.178-.465A1.641,1.641,0,0,0,348.074,861.4Z" transform="translate(-322.67 -785.704)"/>
        <path id="Tracé_86" data-name="Tracé 86" class="cls-2" d="M323.467,850.559a1.482,1.482,0,0,0-.1,1.089,1.276,1.276,0,0,0,.687.775,1.255,1.255,0,0,0,1.037,0,1.5,1.5,0,0,0,.751-.8,1.59,1.59,0,0,0,.084-.276c-.393-.146-.776-.333-1.162-.5l-.577-.261-.289-.13c-.1-.044-.188-.1-.283-.142A1.633,1.633,0,0,0,323.467,850.559Z" transform="translate(-300.439 -775.928)"/>
        <path id="Tracé_87" data-name="Tracé 87" class="cls-2" d="M299.635,838.127a1.472,1.472,0,0,0-.171,1.08,1.342,1.342,0,0,0,.22.482,1.055,1.055,0,0,0,.407.349,1.292,1.292,0,0,0,1.04.059,1.458,1.458,0,0,0,.8-.736,1.606,1.606,0,0,0,.106-.272l-1.128-.578c-.1-.049-.189-.1-.281-.146l-.275-.158-.55-.316A1.638,1.638,0,0,0,299.635,838.127Z" transform="translate(-278.902 -764.727)"/>
        <path id="Tracé_88" data-name="Tracé 88" class="cls-2" d="M276.629,824.228a1.45,1.45,0,0,0-.239,1.057,1.285,1.285,0,0,0,.572.869,1.219,1.219,0,0,0,.5.185,1.35,1.35,0,0,0,.529-.052,1.484,1.484,0,0,0,.85-.687,1.593,1.593,0,0,0,.122-.262l-.55-.316-.137-.078-.134-.085-.268-.171L276.809,824A1.646,1.646,0,0,0,276.629,824.228Z" transform="translate(-258.109 -752.2)"/>
        <path id="Tracé_89" data-name="Tracé 89" class="cls-2" d="M254.558,808.761a1.49,1.49,0,0,0-.316,1.048,1.211,1.211,0,0,0,.515.9,1.276,1.276,0,0,0,1.018.206,1.378,1.378,0,0,0,.491-.213,1.547,1.547,0,0,0,.4-.409,1.579,1.579,0,0,0,.138-.252c-.348-.24-.687-.491-1.035-.732l-.516-.367-.5-.393A1.637,1.637,0,0,0,254.558,808.761Z" transform="translate(-238.148 -738.267)"/>
        <path id="Tracé_90" data-name="Tracé 90" class="cls-2" d="M233.577,791.956a1.462,1.462,0,0,0-.381,1.019,1.3,1.3,0,0,0,.445.943,1.267,1.267,0,0,0,1.008.264,1.472,1.472,0,0,0,.932-.563,1.59,1.59,0,0,0,.156-.243c-.331-.263-.668-.517-.993-.785l-.958-.83a1.65,1.65,0,0,0-.209.2Z" transform="translate(-219.172 -723.125)"/>
        <path id="Tracé_91" data-name="Tracé 91" class="cls-2" d="M213.65,773.785a1.488,1.488,0,0,0-.454,1,1.276,1.276,0,0,0,.393.958,1.258,1.258,0,0,0,.982.344,1.5,1.5,0,0,0,.974-.505,1.583,1.583,0,0,0,.172-.232c-.326-.27-.622-.571-.931-.861l-.458-.438-.23-.219-.219-.229A1.631,1.631,0,0,0,213.65,773.785Z" transform="translate(-201.134 -706.747)"/>
        <path id="Tracé_92" data-name="Tracé 92" class="cls-2" d="M195.075,754.359a1.472,1.472,0,0,0-.516.961,1.34,1.34,0,0,0,.048.527,1.291,1.291,0,0,0,.1.247,1.1,1.1,0,0,0,.165.218,1.293,1.293,0,0,0,.963.4,1.458,1.458,0,0,0,1-.431,1.6,1.6,0,0,0,.187-.221l-.875-.918c-.149-.15-.284-.313-.423-.472l-.415-.479A1.641,1.641,0,0,0,195.075,754.359Z" transform="translate(-184.321 -689.242)"/>
        <path id="Tracé_93" data-name="Tracé 93" class="cls-2" d="M177.756,733.917a1.448,1.448,0,0,0-.574.919,1.283,1.283,0,0,0,.255,1.008,1.258,1.258,0,0,0,.412.342,1.324,1.324,0,0,0,.515.126,1.487,1.487,0,0,0,1.03-.368,1.589,1.589,0,0,0,.2-.207l-.415-.479c-.138-.16-.263-.331-.393-.491l-.785-1A1.641,1.641,0,0,0,177.756,733.917Z" transform="translate(-168.639 -670.827)"/>
        <path id="Tracé_94" data-name="Tracé 94" class="cls-2" d="M161.809,712.1a1.488,1.488,0,0,0-.644.883,1.276,1.276,0,0,0-.024.529,1.257,1.257,0,0,0,.211.491,1.282,1.282,0,0,0,.894.529,1.446,1.446,0,0,0,1.044-.294,1.588,1.588,0,0,0,.214-.2l-.734-1.034c-.122-.173-.247-.343-.365-.518l-.342-.534A1.634,1.634,0,0,0,161.809,712.1Z" transform="translate(-154.175 -651.157)"/>
        <path id="Tracé_95" data-name="Tracé 95" class="cls-2" d="M147.432,689.672a1.461,1.461,0,0,0-.7.835,1.294,1.294,0,0,0,.11,1.037,1.116,1.116,0,0,0,.373.393,1.336,1.336,0,0,0,.491.2,1.473,1.473,0,0,0,1.067-.225,1.6,1.6,0,0,0,.227-.179l-.343-.534c-.112-.18-.234-.352-.335-.538l-.632-1.1A1.647,1.647,0,0,0,147.432,689.672Z" transform="translate(-141.144 -630.956)"/>
        <path id="Tracé_96" data-name="Tracé 96" class="cls-2" d="M134.525,666.179a1.5,1.5,0,0,0-.76.79,1.27,1.27,0,0,0,.863,1.683,1.5,1.5,0,0,0,1.087-.156,1.583,1.583,0,0,0,.239-.162l-.158-.275c-.051-.092-.1-.187-.146-.281l-.289-.564-.289-.564-.145-.284-.134-.287A1.637,1.637,0,0,0,134.525,666.179Z" transform="translate(-129.426 -609.781)"/>
        <path id="Tracé_97" data-name="Tracé 97" class="cls-2" d="M123.233,641.913a1.472,1.472,0,0,0-.806.735,1.34,1.34,0,0,0-.13.513,1.291,1.291,0,0,0,.016.268,1.08,1.08,0,0,0,.083.26,1.294,1.294,0,0,0,.777.695,1.459,1.459,0,0,0,1.08-.077,1.592,1.592,0,0,0,.249-.146l-.522-1.154c-.091-.19-.164-.393-.242-.589l-.233-.589A1.639,1.639,0,0,0,123.233,641.913Z" transform="translate(-119.158 -587.911)"/>
        <path id="Tracé_98" data-name="Tracé 98" class="cls-2" d="M113.707,617.066a1.449,1.449,0,0,0-.847.676,1.284,1.284,0,0,0-.1,1.036,1.254,1.254,0,0,0,.275.459,1.353,1.353,0,0,0,.446.29,1.485,1.485,0,0,0,1.093-.006,1.582,1.582,0,0,0,.258-.129l-.233-.589c-.04-.1-.075-.2-.108-.294l-.1-.3L113.986,617A1.655,1.655,0,0,0,113.707,617.066Z" transform="translate(-110.5 -565.518)"/>
        <path id="Tracé_99" data-name="Tracé 99" class="cls-2" d="M105.776,591.691a1.493,1.493,0,0,0-.9.619,1.213,1.213,0,0,0-.16,1.026,1.276,1.276,0,0,0,.666.8,1.376,1.376,0,0,0,.516.14,1.549,1.549,0,0,0,.568-.069,1.594,1.594,0,0,0,.266-.111c-.121-.4-.232-.813-.348-1.218l-.174-.61c-.052-.205-.1-.411-.144-.616A1.639,1.639,0,0,0,105.776,591.691Z" transform="translate(-103.256 -542.656)"/>
        <path id="Tracé_100" data-name="Tracé 100" class="cls-2" d="M99.558,565.853a1.472,1.472,0,0,0-.936.555A1.226,1.226,0,0,0,99,568.261a1.473,1.473,0,0,0,1.08.143,1.6,1.6,0,0,0,.274-.092l-.285-1.235-.223-1.247A1.637,1.637,0,0,0,99.558,565.853Z" transform="translate(-97.563 -519.37)"/>
        <path id="Tracé_101" data-name="Tracé 101" class="cls-2" d="M95.312,539.709a1.445,1.445,0,0,0-.967.491,1.276,1.276,0,0,0-.294.994,1.213,1.213,0,0,0,.55.883,1.493,1.493,0,0,0,1.074.216,1.583,1.583,0,0,0,.279-.074c-.036-.208-.077-.415-.109-.624l-.079-.629-.159-1.257A1.626,1.626,0,0,0,95.312,539.709Z" transform="translate(-93.675 -495.807)"/>
        <path id="Tracé_102" data-name="Tracé 102" class="cls-2" d="M92.663,513.262a1.492,1.492,0,0,0-1.009.425,1.219,1.219,0,0,0-.294.441,1.256,1.256,0,0,0-.074.53,1.282,1.282,0,0,0,.491.915,1.446,1.446,0,0,0,1.048.291,1.607,1.607,0,0,0,.284-.055l-.1-1.264-.047-.632-.016-.634A1.633,1.633,0,0,0,92.663,513.262Z" transform="translate(-91.189 -471.961)"/>
        <path id="Tracé_103" data-name="Tracé 103" class="cls-2" d="M91.8,486.717a1.472,1.472,0,0,0-1.029.357,1.225,1.225,0,0,0,0,1.89,1.472,1.472,0,0,0,1.029.357,1.6,1.6,0,0,0,.287-.035l-.032-1.267.032-1.267A1.641,1.641,0,0,0,91.8,486.717Z" transform="translate(-90.328 -448.021)"/>
        <path id="Tracé_104" data-name="Tracé 104" class="cls-2" d="M92.861,460.143a1.447,1.447,0,0,0-1.044.289,1.281,1.281,0,0,0-.491.915,1.256,1.256,0,0,0,.074.531,1.219,1.219,0,0,0,.294.442,1.492,1.492,0,0,0,1.009.426,1.588,1.588,0,0,0,.288-.017l.016-.634.047-.632.1-1.264A1.647,1.647,0,0,0,92.861,460.143Z" transform="translate(-91.224 -424.048)"/>
        <path id="Tracé_105" data-name="Tracé 105" class="cls-2" d="M95.634,433.715a1.493,1.493,0,0,0-1.074.216,1.212,1.212,0,0,0-.55.883,1.276,1.276,0,0,0,.294.994,1.445,1.445,0,0,0,.967.491,1.583,1.583,0,0,0,.288,0l.159-1.257.08-.629c.032-.209.074-.416.109-.624A1.635,1.635,0,0,0,95.634,433.715Z" transform="translate(-93.639 -400.202)"/>
        <path id="Tracé_106" data-name="Tracé 106" class="cls-2" d="M100.1,407.52a1.473,1.473,0,0,0-1.08.143,1.226,1.226,0,0,0-.379,1.853,1.472,1.472,0,0,0,.936.556,1.6,1.6,0,0,0,.289.023l.223-1.247.285-1.235a1.64,1.64,0,0,0-.274-.092Z" transform="translate(-97.577 -376.558)"/>
        <path id="Tracé_107" data-name="Tracé 107" class="cls-2" d="M106.464,381.668a1.549,1.549,0,0,0-.568-.069,1.375,1.375,0,0,0-.516.14,1.276,1.276,0,0,0-.666.8,1.214,1.214,0,0,0,.16,1.026,1.493,1.493,0,0,0,.9.62,1.589,1.589,0,0,0,.286.042c.048-.205.092-.412.144-.616l.174-.61c.117-.406.228-.814.348-1.218A1.631,1.631,0,0,0,106.464,381.668Z" transform="translate(-103.257 -353.219)"/>
        <path id="Tracé_108" data-name="Tracé 108" class="cls-2" d="M114.566,356.334a1.485,1.485,0,0,0-1.093-.006,1.353,1.353,0,0,0-.446.29,1.252,1.252,0,0,0-.275.459,1.285,1.285,0,0,0,.1,1.035,1.449,1.449,0,0,0,.847.676,1.6,1.6,0,0,0,.283.061l.405-1.2.1-.3c.033-.1.067-.2.108-.294l.233-.589A1.637,1.637,0,0,0,114.566,356.334Z" transform="translate(-110.492 -330.34)"/>
        <path id="Tracé_109" data-name="Tracé 109" class="cls-2" d="M124.294,331.566a1.46,1.46,0,0,0-1.08-.078,1.294,1.294,0,0,0-.777.695,1.08,1.08,0,0,0-.083.26,1.292,1.292,0,0,0-.016.268,1.34,1.34,0,0,0,.13.513,1.472,1.472,0,0,0,.806.735,1.593,1.593,0,0,0,.278.08l.233-.589c.079-.2.151-.393.242-.589l.522-1.154A1.641,1.641,0,0,0,124.294,331.566Z" transform="translate(-119.195 -307.967)"/>
        <path id="Tracé_110" data-name="Tracé 110" class="cls-2" d="M135.7,307.5a1.5,1.5,0,0,0-1.087-.156,1.27,1.27,0,0,0-.863,1.683,1.5,1.5,0,0,0,.76.79,1.583,1.583,0,0,0,.271.1l.131-.289.144-.282.289-.564.289-.564c.049-.1.1-.188.146-.281l.158-.275A1.632,1.632,0,0,0,135.7,307.5Z" transform="translate(-129.417 -286.216)"/>
        <path id="Tracé_111" data-name="Tracé 111" class="cls-2" d="M148.787,284.306a1.473,1.473,0,0,0-1.067-.225,1.338,1.338,0,0,0-.491.2,1.118,1.118,0,0,0-.373.393,1.3,1.3,0,0,0-.11,1.037,1.461,1.461,0,0,0,.7.835,1.6,1.6,0,0,0,.264.117l.632-1.1c.1-.185.223-.358.335-.538l.343-.534A1.643,1.643,0,0,0,148.787,284.306Z" transform="translate(-141.153 -265.256)"/>
        <path id="Tracé_112" data-name="Tracé 112" class="cls-2" d="M163.291,261.945a1.447,1.447,0,0,0-1.044-.294,1.281,1.281,0,0,0-.894.529,1.256,1.256,0,0,0-.211.491,1.276,1.276,0,0,0,.024.529,1.488,1.488,0,0,0,.644.883,1.591,1.591,0,0,0,.255.134l.342-.534c.117-.176.243-.345.365-.518l.734-1.034A1.637,1.637,0,0,0,163.291,261.945Z" transform="translate(-154.175 -245.038)"/>
        <path id="Tracé_113" data-name="Tracé 113" class="cls-2" d="M179.394,240.7a1.486,1.486,0,0,0-1.03-.368,1.322,1.322,0,0,0-.515.126,1.255,1.255,0,0,0-.412.342,1.283,1.283,0,0,0-.255,1.008,1.448,1.448,0,0,0,.574.919,1.6,1.6,0,0,0,.246.152l.785-1c.133-.165.257-.336.393-.491l.415-.479A1.634,1.634,0,0,0,179.394,240.7Z" transform="translate(-168.639 -225.82)"/>
        <path id="Tracé_114" data-name="Tracé 114" class="cls-2" d="M196.845,220.558a1.459,1.459,0,0,0-1-.431,1.293,1.293,0,0,0-.963.4,1.1,1.1,0,0,0-.165.218,1.291,1.291,0,0,0-.1.247,1.339,1.339,0,0,0-.048.527,1.472,1.472,0,0,0,.516.961,1.6,1.6,0,0,0,.236.168l.415-.479c.138-.159.274-.322.423-.472l.875-.918A1.643,1.643,0,0,0,196.845,220.558Z" transform="translate(-184.33 -207.598)"/>
        <path id="Tracé_115" data-name="Tracé 115" class="cls-2" d="M215.5,201.549a1.5,1.5,0,0,0-.974-.505,1.256,1.256,0,0,0-.982.345,1.276,1.276,0,0,0-.393.959,1.488,1.488,0,0,0,.454,1,1.585,1.585,0,0,0,.223.183l.219-.229.23-.219.458-.438c.308-.29.6-.589.931-.861A1.63,1.63,0,0,0,215.5,201.549Z" transform="translate(-201.098 -190.384)"/>
        <path id="Tracé_116" data-name="Tracé 116" class="cls-2" d="M235.574,183.959a1.473,1.473,0,0,0-.932-.563,1.267,1.267,0,0,0-1.009.264,1.3,1.3,0,0,0-.446.944,1.462,1.462,0,0,0,.381,1.019,1.6,1.6,0,0,0,.211.2l.96-.829c.325-.27.663-.524.993-.785A1.641,1.641,0,0,0,235.574,183.959Z" transform="translate(-219.163 -174.456)"/>
        <path id="Tracé_117" data-name="Tracé 117" class="cls-2" d="M256.677,167.672a1.546,1.546,0,0,0-.4-.409,1.381,1.381,0,0,0-.491-.214,1.276,1.276,0,0,0-1.018.206,1.211,1.211,0,0,0-.515.9,1.49,1.49,0,0,0,.316,1.048,1.59,1.59,0,0,0,.2.211l.5-.393.516-.367c.346-.243.687-.491,1.035-.732A1.623,1.623,0,0,0,256.677,167.672Z" transform="translate(-238.157 -159.703)"/>
        <path id="Tracé_118" data-name="Tracé 118" class="cls-2" d="M278.826,152.847a1.484,1.484,0,0,0-.85-.687,1.352,1.352,0,0,0-.529-.052,1.218,1.218,0,0,0-.5.186,1.285,1.285,0,0,0-.572.869,1.45,1.45,0,0,0,.241,1.057,1.6,1.6,0,0,0,.183.225l1.067-.687.267-.171.133-.085.137-.079.55-.316A1.635,1.635,0,0,0,278.826,152.847Z" transform="translate(-258.094 -146.25)"/>
        <path id="Tracé_119" data-name="Tracé 119" class="cls-2" d="M301.93,139.631a1.458,1.458,0,0,0-.8-.736,1.292,1.292,0,0,0-1.04.059,1.055,1.055,0,0,0-.408.349,1.342,1.342,0,0,0-.22.482,1.472,1.472,0,0,0,.171,1.08,1.6,1.6,0,0,0,.167.236l.55-.316.275-.158c.091-.053.187-.1.281-.146l1.129-.579A1.646,1.646,0,0,0,301.93,139.631Z" transform="translate(-278.902 -134.265)"/>
        <path id="Tracé_120" data-name="Tracé 120" class="cls-2" d="M325.852,127.9a1.5,1.5,0,0,0-.751-.8,1.255,1.255,0,0,0-1.036,0,1.276,1.276,0,0,0-.687.774,1.482,1.482,0,0,0,.1,1.09,1.587,1.587,0,0,0,.15.246c.1-.047.186-.1.283-.142l.289-.131.577-.261c.386-.171.766-.358,1.162-.5A1.63,1.63,0,0,0,325.852,127.9Z" transform="translate(-300.448 -123.604)"/>
        <path id="Tracé_121" data-name="Tracé 121" class="cls-2" d="M350.469,117.861a1.472,1.472,0,0,0-.693-.842,1.337,1.337,0,0,0-.507-.155,1.128,1.128,0,0,0-.534.069,1.3,1.3,0,0,0-.733.743,1.461,1.461,0,0,0,.022,1.088,1.6,1.6,0,0,0,.134.256l1.178-.465.147-.058.15-.051.3-.1.6-.2A1.639,1.639,0,0,0,350.469,117.861Z" transform="translate(-322.624 -114.464)"/>
        <path id="Tracé_122" data-name="Tracé 122" class="cls-2" d="M375.794,109.58a1.447,1.447,0,0,0-.632-.883,1.282,1.282,0,0,0-1.029-.145,1.257,1.257,0,0,0-.473.252,1.276,1.276,0,0,0-.312.428,1.488,1.488,0,0,0-.05,1.093,1.59,1.59,0,0,0,.115.265l.6-.2c.2-.065.405-.117.609-.177l1.219-.346A1.646,1.646,0,0,0,375.794,109.58Z" transform="translate(-345.45 -106.93)"/>
        <path id="Tracé_123" data-name="Tracé 123" class="cls-2" d="M401.529,102.976a1.492,1.492,0,0,0-.573-.933,1.209,1.209,0,0,0-1.016-.213,1.276,1.276,0,0,0-.83.625,1.445,1.445,0,0,0-.127,1.08,1.583,1.583,0,0,0,.1.271l1.235-.285.617-.142.624-.112A1.634,1.634,0,0,0,401.529,102.976Z" transform="translate(-368.639 -100.882)"/>
        <path id="Tracé_124" data-name="Tracé 124" class="cls-2" d="M427.776,98.141a1.472,1.472,0,0,0-.507-.963,1.227,1.227,0,0,0-1.865.284,1.472,1.472,0,0,0-.2,1.071,1.6,1.6,0,0,0,.079.278l1.248-.222,1.257-.16A1.645,1.645,0,0,0,427.776,98.141Z" transform="translate(-392.311 -96.438)"/>
        <path id="Tracé_125" data-name="Tracé 125" class="cls-2" d="M454.126,95.174a1.445,1.445,0,0,0-.442-.99,1.276,1.276,0,0,0-.982-.349,1.213,1.213,0,0,0-.9.5,1.494,1.494,0,0,0-.27,1.062,1.588,1.588,0,0,0,.06.283c.21-.026.419-.056.629-.078l.632-.048,1.264-.1A1.628,1.628,0,0,0,454.126,95.174Z" transform="translate(-416.065 -93.698)"/>
        <path id="Tracé_126" data-name="Tracé 126" class="cls-2" d="M480.669,93.925a1.493,1.493,0,0,0-.375-1.03,1.208,1.208,0,0,0-.952-.412,1.276,1.276,0,0,0-.938.443,1.447,1.447,0,0,0-.341,1.029,1.61,1.61,0,0,0,.04.287l1.267-.031.634-.017.634.016A1.628,1.628,0,0,0,480.669,93.925Z" transform="translate(-440.001 -92.482)"/>
        <path id="Tracé_127" data-name="Tracé 127" class="cls-2" d="M507.2,94.351a1.472,1.472,0,0,0-.309-1.045,1.226,1.226,0,0,0-1.889-.1,1.472,1.472,0,0,0-.408,1.009,1.6,1.6,0,0,0,.022.289l1.267.031,1.264.1A1.641,1.641,0,0,0,507.2,94.351Z" transform="translate(-463.934 -92.777)"/>
        <path id="Tracé_128" data-name="Tracé 128" class="cls-2" d="M533.679,96.74a1.447,1.447,0,0,0-.236-1.057,1.281,1.281,0,0,0-.888-.539,1.256,1.256,0,0,0-.534.046,1.23,1.23,0,0,0-.455.27,1.49,1.49,0,0,0-.476.982,1.582,1.582,0,0,0,0,.289l.632.048.629.079,1.257.16A1.651,1.651,0,0,0,533.679,96.74Z" transform="translate(-487.82 -94.874)"/>
        <path id="Tracé_129" data-name="Tracé 129" class="cls-2" d="M559.9,100.9a1.492,1.492,0,0,0-.161-1.08,1.21,1.21,0,0,0-.851-.595,1.276,1.276,0,0,0-1.01.245,1.445,1.445,0,0,0-.539.94,1.586,1.586,0,0,0-.018.288l1.248.223.624.111.617.141A1.635,1.635,0,0,0,559.9,100.9Z" transform="translate(-511.484 -98.547)"/>
        <path id="Tracé_130" data-name="Tracé 130" class="cls-2" d="M585.789,106.65a1.466,1.466,0,0,0-.088-1.085,1.228,1.228,0,0,0-1.831-.473,1.473,1.473,0,0,0-.6.907,1.6,1.6,0,0,0-.037.287l1.235.287,1.219.346A1.652,1.652,0,0,0,585.789,106.65Z" transform="translate(-534.848 -103.645)"/>
        <path id="Tracé_131" data-name="Tracé 131" class="cls-2" d="M611.3,114.333a1.454,1.454,0,0,0-.015-1.089,1.276,1.276,0,0,0-.763-.7,1.258,1.258,0,0,0-.785-.007,1.352,1.352,0,0,0-.242.114,1.494,1.494,0,0,0-.666.871,1.592,1.592,0,0,0-.056.283c.2.06.407.111.609.178l.6.2.6.2.3.1c.1.033.2.066.294.107A1.627,1.627,0,0,0,611.3,114.333Z" transform="translate(-557.881 -110.512)"/>
        <path id="Tracé_132" data-name="Tracé 132" class="cls-2" d="M636.174,123.719a1.483,1.483,0,0,0,.061-1.091,1.351,1.351,0,0,0-.267-.459,1.178,1.178,0,0,0-.444-.3,1.287,1.287,0,0,0-1.04.043,1.452,1.452,0,0,0-.719.813,1.6,1.6,0,0,0-.076.279c.785.315,1.579.6,2.342.968A1.64,1.64,0,0,0,636.174,123.719Z" transform="translate(-580.355 -118.903)"/>
        <path id="Tracé_133" data-name="Tracé 133" class="cls-2" d="M660.479,134.658a1.456,1.456,0,0,0,.132-1.08,1.291,1.291,0,0,0-.656-.81,1.268,1.268,0,0,0-.255-.1,1.136,1.136,0,0,0-.266-.03,1.344,1.344,0,0,0-.52.1,1.477,1.477,0,0,0-.775.769,1.592,1.592,0,0,0-.1.273l.585.264.289.131c.1.046.188.1.283.143l1.128.578a1.643,1.643,0,0,0,.155-.243Z" transform="translate(-602.315 -128.698)"/>
        <path id="Tracé_134" data-name="Tracé 134" class="cls-2" d="M684.106,147.316a1.5,1.5,0,0,0,.21-1.08,1.245,1.245,0,0,0-.606-.841,1.276,1.276,0,0,0-1.032-.106,1.472,1.472,0,0,0-.826.716,1.58,1.58,0,0,0-.112.265c.19.092.372.2.555.305l.55.316c.365.212.737.414,1.088.65A1.633,1.633,0,0,0,684.106,147.316Z" transform="translate(-623.689 -140.049)"/>
        <path id="Tracé_135" data-name="Tracé 135" class="cls-2" d="M706.811,161.568a1.472,1.472,0,0,0,.278-1.053,1.276,1.276,0,0,0-.537-.9,1.3,1.3,0,0,0-1.032-.16,1.464,1.464,0,0,0-.87.654,1.6,1.6,0,0,0-.13.258l1.067.687c.348.238.687.491,1.035.731A1.64,1.64,0,0,0,706.811,161.568Z" transform="translate(-644.233 -152.846)"/>
        <path id="Tracé_136" data-name="Tracé 136" class="cls-2" d="M728.562,177.2a1.557,1.557,0,0,0,.28-.5,1.376,1.376,0,0,0,.067-.531,1.276,1.276,0,0,0-.485-.918,1.215,1.215,0,0,0-1.01-.24,1.491,1.491,0,0,0-.917.6,1.583,1.583,0,0,0-.147.248c.172.123.346.243.515.368l.5.393c.331.263.668.518.994.785a1.628,1.628,0,0,0,.2-.205Z" transform="translate(-663.92 -166.886)"/>
        <path id="Tracé_137" data-name="Tracé 137" class="cls-2" d="M749.335,194.385a1.482,1.482,0,0,0,.419-1.006,1.349,1.349,0,0,0-.1-.521,1.171,1.171,0,0,0-.319-.431,1.286,1.286,0,0,0-1-.3,1.451,1.451,0,0,0-.947.528,1.6,1.6,0,0,0-.164.238c.635.558,1.29,1.093,1.89,1.69A1.642,1.642,0,0,0,749.335,194.385Z" transform="translate(-682.75 -182.336)"/>
        <path id="Tracé_138" data-name="Tracé 138" class="cls-2" d="M768.9,212.748a1.456,1.456,0,0,0,.48-.974,1.29,1.29,0,0,0-.352-.982,1.221,1.221,0,0,0-.974-.368,1.478,1.478,0,0,0-.982.468,1.594,1.594,0,0,0-.18.227l.458.438.23.219.219.23.875.918A1.65,1.65,0,0,0,768.9,212.748Z" transform="translate(-700.48 -198.845)"/>
        <path id="Tracé_139" data-name="Tracé 139" class="cls-2" d="M787.23,232.416a1.5,1.5,0,0,0,.553-.946,1.184,1.184,0,0,0-.035-.524,1.261,1.261,0,0,0-.257-.47,1.276,1.276,0,0,0-.939-.44,1.351,1.351,0,0,0-.265.02,1.482,1.482,0,0,0-.265.077,1.555,1.555,0,0,0-.485.3,1.585,1.585,0,0,0-.2.213c.149.149.282.314.422.473l.415.479.415.479a3.072,3.072,0,0,1,.2.245l.2.249A1.635,1.635,0,0,0,787.23,232.416Z" transform="translate(-717.119 -216.535)"/>
        <path id="Tracé_140" data-name="Tracé 140" class="cls-2" d="M804.249,253.32a1.472,1.472,0,0,0,.61-.9,1.228,1.228,0,0,0-1.133-1.513,1.466,1.466,0,0,0-1.037.33,1.6,1.6,0,0,0-.208.2l.785,1,.733,1.036A1.645,1.645,0,0,0,804.249,253.32Z" transform="translate(-732.577 -235.352)"/>
        <path id="Tracé_141" data-name="Tracé 141" class="cls-2" d="M819.912,275.188a1.458,1.458,0,0,0,.669-.86,1.275,1.275,0,0,0-.156-1.026,1.258,1.258,0,0,0-.612-.5,1.368,1.368,0,0,0-.26-.063,1.494,1.494,0,0,0-1.063.264,1.582,1.582,0,0,0-.221.185c.121.174.248.342.364.519l.342.534.342.534.171.267.085.133.08.137A1.635,1.635,0,0,0,819.912,275.188Z" transform="translate(-746.817 -255.036)"/>
        <path id="Tracé_142" data-name="Tracé 142" class="cls-2" d="M834.113,298.055a1.481,1.481,0,0,0,.728-.814,1.213,1.213,0,0,0-.078-1.037,1.288,1.288,0,0,0-.84-.614,1.453,1.453,0,0,0-1.069.187,1.6,1.6,0,0,0-.234.171l.626,1.1.158.275c.054.091.1.188.147.281l.289.564A1.636,1.636,0,0,0,834.113,298.055Z" transform="translate(-759.759 -275.625)"/>
        <path id="Tracé_143" data-name="Tracé 143" class="cls-2" d="M846.7,321.8a1.455,1.455,0,0,0,.775-.76,1.289,1.289,0,0,0-.008-1.041,1.217,1.217,0,0,0-.8-.669,1.48,1.48,0,0,0-1.086.115,1.588,1.588,0,0,0-.244.154l.289.564c.047.1.1.187.143.283l.131.289.522,1.154A1.646,1.646,0,0,0,846.7,321.8Z" transform="translate(-771.23 -297.014)"/>
        <path id="Tracé_144" data-name="Tracé 144" class="cls-2" d="M857.815,346.266a1.5,1.5,0,0,0,.836-.709,1.188,1.188,0,0,0,.139-.506,1.259,1.259,0,0,0-.086-.529,1.276,1.276,0,0,0-.74-.726,1.346,1.346,0,0,0-.256-.069,1.474,1.474,0,0,0-.276-.016,1.554,1.554,0,0,0-.558.127,1.582,1.582,0,0,0-.253.137c.091.19.162.393.24.589l.233.589.233.589.058.147.051.15.1.3A1.631,1.631,0,0,0,857.815,346.266Z" transform="translate(-781.403 -319.051)"/>
        <path id="Tracé_145" data-name="Tracé 145" class="cls-2" d="M867.15,371.421a1.472,1.472,0,0,0,.876-.649,1.276,1.276,0,0,0,.14-1.035,1.3,1.3,0,0,0-.706-.769,1.465,1.465,0,0,0-1.088-.033,1.6,1.6,0,0,0-.263.12l.406,1.2c.124.4.233.812.349,1.218A1.642,1.642,0,0,0,867.15,371.421Z" transform="translate(-789.961 -341.72)"/>
        <path id="Tracé_146" data-name="Tracé 146" class="cls-2" d="M874.811,397.06a1.446,1.446,0,0,0,.911-.589,1.276,1.276,0,0,0,.2-1.02,1.258,1.258,0,0,0-.229-.485,1.224,1.224,0,0,0-.41-.335,1.49,1.49,0,0,0-1.09-.105,1.59,1.59,0,0,0-.27.1l.174.61.143.617.286,1.235A1.65,1.65,0,0,0,874.811,397.06Z" transform="translate(-797.005 -364.828)"/>
        <path id="Tracé_147" data-name="Tracé 147" class="cls-2" d="M880.882,423.132a1.491,1.491,0,0,0,.961-.525,1.221,1.221,0,0,0,.245-.468,1.256,1.256,0,0,0,.02-.535,1.281,1.281,0,0,0-.582-.861,1.446,1.446,0,0,0-1.069-.182,1.6,1.6,0,0,0-.277.083l.223,1.247.111.624.08.629A1.641,1.641,0,0,0,880.882,423.132Z" transform="translate(-802.65 -388.329)"/>
        <path id="Tracé_148" data-name="Tracé 148" class="cls-2" d="M885.013,449.509a1.473,1.473,0,0,0,.988-.458,1.227,1.227,0,0,0-.189-1.882,1.472,1.472,0,0,0-1.06-.252,1.594,1.594,0,0,0-.282.064l.158,1.257.1,1.264A1.638,1.638,0,0,0,885.013,449.509Z" transform="translate(-806.519 -412.115)"/>
        <path id="Tracé_149" data-name="Tracé 149" class="cls-2" d="M887.483,476.033a1.446,1.446,0,0,0,1.01-.393,1.276,1.276,0,0,0,.4-.959,1.212,1.212,0,0,0-.458-.93,1.494,1.494,0,0,0-1.047-.322,1.588,1.588,0,0,0-.285.045c.015.211.034.421.046.632l.016.634.032,1.267A1.647,1.647,0,0,0,887.483,476.033Z" transform="translate(-808.891 -436.034)"/>
      </g>
      <g id="Calque_2" data-name="Calque 2" transform="translate(26.394 12.95)">
        <path id="Tracé_150" data-name="Tracé 150" class="cls-2" d="M366.248,278.031V256.789a.724.724,0,0,0-.724-.724h-5.56a.724.724,0,0,1-.724-.724v-9.226a.724.724,0,0,1,.724-.724h5.56a.724.724,0,0,0,.724-.724v-6.956s-.334-12.68,10.342-13.015a56.815,56.815,0,0,1,9.761.17.723.723,0,0,1,.615.751l-.332,7.067a.724.724,0,0,1-.723.687H380.74c-.344-.031-3.963-.238-3.646,5.006v5.616a.724.724,0,0,0,.724.724h8.3a.724.724,0,0,1,.712.864l-1.9,9.733a.724.724,0,0,1-.712.589h-6.736a.724.724,0,0,0-.724.724v21.406a.724.724,0,0,1-.724.724h-9.067A.724.724,0,0,1,366.248,278.031Z" transform="translate(-359.24 -224.597)"/>
      </g>
    </g>
    <g id="Groupe_de_masques_7" data-name="Groupe de masques 7" class="cls-3" transform="translate(-16509 2564)">
      <g id="instagram" transform="translate(17031.002 -2508.998)">
        <rect id="Rectangle_32" data-name="Rectangle 32" class="cls-4" width="43.86" height="43.86" rx="3.13" transform="translate(18.28 18.067)"/>
        <circle id="Ellipse_66" data-name="Ellipse 66" class="cls-4" cx="12.616" cy="12.616" r="12.616" transform="translate(27.593 27.38)"/>
        <circle id="Ellipse_67" data-name="Ellipse 67" class="cls-2" cx="3.656" cy="3.656" r="3.656" transform="translate(51.121 22.252)"/>
        <path id="Tracé_151" data-name="Tracé 151" class="cls-2" d="M87.355,51.68a1.494,1.494,0,0,0,1.047-.323,1.211,1.211,0,0,0,.458-.93,1.276,1.276,0,0,0-.4-.959,1.446,1.446,0,0,0-1.01-.392,1.6,1.6,0,0,0-.289.027l-.032,1.267L87.116,51c-.012.211-.031.421-.046.632A1.631,1.631,0,0,0,87.355,51.68Z" transform="translate(-8.866 -9.079)"/>
        <path id="Tracé_152" data-name="Tracé 152" class="cls-2" d="M87.093,54.272a1.472,1.472,0,0,0,1.06-.252,1.227,1.227,0,0,0,.188-1.882,1.472,1.472,0,0,0-.986-.458,1.6,1.6,0,0,0-.289.007l-.1,1.264-.158,1.257A1.64,1.64,0,0,0,87.093,54.272Z" transform="translate(-8.866 -9.079)"/>
        <path id="Tracé_153" data-name="Tracé 153" class="cls-2" d="M86.668,56.843a1.446,1.446,0,0,0,1.068-.182,1.276,1.276,0,0,0,.582-.861,1.257,1.257,0,0,0-.02-.536,1.221,1.221,0,0,0-.245-.468,1.491,1.491,0,0,0-.961-.525,1.588,1.588,0,0,0-.289-.013l-.079.629-.111.624-.223,1.248a1.649,1.649,0,0,0,.278.083Z" transform="translate(-8.866 -9.079)"/>
        <path id="Tracé_154" data-name="Tracé 154" class="cls-2" d="M86.051,59.374a1.49,1.49,0,0,0,1.089-.105,1.222,1.222,0,0,0,.41-.335,1.256,1.256,0,0,0,.229-.485,1.281,1.281,0,0,0-.2-1.02,1.445,1.445,0,0,0-.911-.589,1.6,1.6,0,0,0-.288-.032L86.1,58.043l-.143.617-.171.611A1.634,1.634,0,0,0,86.051,59.374Z" transform="translate(-8.866 -9.079)"/>
        <path id="Tracé_155" data-name="Tracé 155" class="cls-2" d="M85.273,61.86a1.464,1.464,0,0,0,1.088-.033,1.3,1.3,0,0,0,.706-.77,1.276,1.276,0,0,0-.14-1.035,1.472,1.472,0,0,0-.876-.649,1.6,1.6,0,0,0-.285-.052c-.117.405-.227.814-.349,1.218l-.406,1.2A1.642,1.642,0,0,0,85.273,61.86Z" transform="translate(-8.866 -9.079)"/>
        <path id="Tracé_156" data-name="Tracé 156" class="cls-2" d="M84.331,64.289a1.555,1.555,0,0,0,.558.127,1.472,1.472,0,0,0,.276-.016,1.348,1.348,0,0,0,.256-.069,1.276,1.276,0,0,0,.74-.726,1.261,1.261,0,0,0,.087-.529,1.187,1.187,0,0,0-.139-.506,1.5,1.5,0,0,0-.836-.709,1.589,1.589,0,0,0-.28-.071l-.1.3-.051.15-.058.147-.233.589-.233.589c-.08.2-.149.393-.24.589a1.629,1.629,0,0,0,.25.134Z" transform="translate(-8.866 -9.079)"/>
        <path id="Tracé_157" data-name="Tracé 157" class="cls-2" d="M83.216,66.645a1.48,1.48,0,0,0,1.086.117,1.216,1.216,0,0,0,.8-.669,1.29,1.29,0,0,0,.008-1.041,1.454,1.454,0,0,0-.775-.76,1.6,1.6,0,0,0-.275-.089l-.522,1.154-.131.289c-.045.1-.1.188-.143.283l-.289.564A1.637,1.637,0,0,0,83.216,66.645Z" transform="translate(-8.866 -9.079)"/>
        <path id="Tracé_158" data-name="Tracé 158" class="cls-2" d="M81.957,68.923a1.454,1.454,0,0,0,1.069.186,1.288,1.288,0,0,0,.84-.614,1.213,1.213,0,0,0,.079-1.037,1.481,1.481,0,0,0-.728-.814,1.592,1.592,0,0,0-.268-.108l-.289.564c-.049.1-.1.189-.147.281l-.158.275-.632,1.1A1.648,1.648,0,0,0,81.957,68.923Z" transform="translate(-8.866 -9.079)"/>
        <path id="Tracé_159" data-name="Tracé 159" class="cls-2" d="M80.533,71.106a1.494,1.494,0,0,0,1.063.264,1.365,1.365,0,0,0,.26-.063,1.271,1.271,0,0,0,.769-1.521,1.459,1.459,0,0,0-.669-.86A1.586,1.586,0,0,0,81.7,68.8l-.079.137-.085.133-.171.267-.342.534-.339.53c-.115.178-.242.345-.364.519A1.633,1.633,0,0,0,80.533,71.106Z" transform="translate(-8.866 -9.079)"/>
        <path id="Tracé_160" data-name="Tracé 160" class="cls-2" d="M78.973,73.193a1.466,1.466,0,0,0,1.037.33,1.228,1.228,0,0,0,1.133-1.514,1.472,1.472,0,0,0-.61-.9,1.6,1.6,0,0,0-.251-.143L79.547,72l-.785,1a1.643,1.643,0,0,0,.211.2Z" transform="translate(-8.866 -9.079)"/>
        <path id="Tracé_161" data-name="Tracé 161" class="cls-2" d="M77.278,75.171a1.556,1.556,0,0,0,.485.3,1.479,1.479,0,0,0,.265.077,1.35,1.35,0,0,0,.265.02,1.276,1.276,0,0,0,.939-.44,1.26,1.26,0,0,0,.257-.47,1.184,1.184,0,0,0,.035-.524,1.5,1.5,0,0,0-.553-.946,1.588,1.588,0,0,0-.24-.159l-.2.249c-.065.083-.13.167-.2.245l-.418.479-.415.479c-.139.158-.273.323-.422.473A1.631,1.631,0,0,0,77.278,75.171Z" transform="translate(-8.866 -9.079)"/>
        <path id="Tracé_162" data-name="Tracé 162" class="cls-2" d="M75.446,77.025a1.478,1.478,0,0,0,.982.468,1.221,1.221,0,0,0,.974-.368,1.29,1.29,0,0,0,.351-.982,1.456,1.456,0,0,0-.48-.974,1.6,1.6,0,0,0-.23-.176l-.875.918-.219.23-.224.221-.458.438A1.638,1.638,0,0,0,75.446,77.025Z" transform="translate(-8.866 -9.079)"/>
        <path id="Tracé_163" data-name="Tracé 163" class="cls-2" d="M73.5,78.762a1.452,1.452,0,0,0,.947.528,1.286,1.286,0,0,0,1-.3,1.172,1.172,0,0,0,.319-.431,1.35,1.35,0,0,0,.1-.521,1.482,1.482,0,0,0-.419-1.009,1.59,1.59,0,0,0-.217-.19c-.6.6-1.253,1.133-1.889,1.689a1.648,1.648,0,0,0,.166.238Z" transform="translate(-8.866 -9.079)"/>
        <path id="Tracé_164" data-name="Tracé 164" class="cls-2" d="M71.441,80.353a1.491,1.491,0,0,0,.917.6,1.215,1.215,0,0,0,1.01-.24,1.276,1.276,0,0,0,.485-.918,1.374,1.374,0,0,0-.067-.531,1.558,1.558,0,0,0-.28-.5,1.584,1.584,0,0,0-.2-.2c-.327.268-.664.524-.994.785l-.5.393c-.171.125-.344.245-.515.368a1.633,1.633,0,0,0,.146.247Z" transform="translate(-8.866 -9.079)"/>
        <path id="Tracé_165" data-name="Tracé 165" class="cls-2" d="M69.279,81.807a1.464,1.464,0,0,0,.87.654,1.3,1.3,0,0,0,1.032-.16,1.276,1.276,0,0,0,.538-.9,1.472,1.472,0,0,0-.278-1.053,1.6,1.6,0,0,0-.189-.218c-.345.243-.687.491-1.035.731l-1.067.687A1.642,1.642,0,0,0,69.279,81.807Z" transform="translate(-8.866 -9.079)"/>
        <path id="Tracé_166" data-name="Tracé 166" class="cls-2" d="M67.027,83.115a1.472,1.472,0,0,0,.826.716,1.276,1.276,0,0,0,1.031-.107,1.245,1.245,0,0,0,.607-.841,1.5,1.5,0,0,0-.21-1.08,1.589,1.589,0,0,0-.175-.23c-.351.236-.722.439-1.088.65l-.55.316c-.183.105-.365.213-.555.305A1.63,1.63,0,0,0,67.027,83.115Z" transform="translate(-8.866 -9.079)"/>
        <path id="Tracé_167" data-name="Tracé 167" class="cls-2" d="M64.682,84.258a1.478,1.478,0,0,0,.775.769,1.344,1.344,0,0,0,.52.1,1.136,1.136,0,0,0,.266-.03A1.266,1.266,0,0,0,66.5,85a1.291,1.291,0,0,0,.656-.81,1.457,1.457,0,0,0-.132-1.08,1.6,1.6,0,0,0-.159-.241l-1.128.578c-.1.048-.187.1-.283.143l-.281.131-.577.261a1.639,1.639,0,0,0,.086.274Z" transform="translate(-8.866 -9.079)"/>
        <path id="Tracé_168" data-name="Tracé 168" class="cls-2" d="M62.278,85.254a1.452,1.452,0,0,0,.718.813,1.287,1.287,0,0,0,1.039.044,1.178,1.178,0,0,0,.444-.3,1.351,1.351,0,0,0,.267-.459,1.483,1.483,0,0,0-.061-1.091,1.592,1.592,0,0,0-.141-.251c-.763.365-1.558.653-2.342.968a1.647,1.647,0,0,0,.076.278Z" transform="translate(-8.866 -9.079)"/>
        <path id="Tracé_169" data-name="Tracé 169" class="cls-2" d="M59.8,86.069a1.5,1.5,0,0,0,.665.871,1.353,1.353,0,0,0,.242.114,1.257,1.257,0,0,0,.785-.007,1.276,1.276,0,0,0,.763-.7,1.454,1.454,0,0,0,.015-1.089,1.583,1.583,0,0,0-.124-.26c-.1.041-.2.074-.294.107l-.3.1-.6.206-.6.2c-.2.067-.405.118-.609.178a1.633,1.633,0,0,0,.06.283Z" transform="translate(-8.866 -9.079)"/>
        <path id="Tracé_170" data-name="Tracé 170" class="cls-2" d="M57.281,86.719a1.472,1.472,0,0,0,.6.907,1.228,1.228,0,0,0,1.831-.473,1.466,1.466,0,0,0,.088-1.085A1.6,1.6,0,0,0,59.7,85.8l-1.219.346-1.235.287a1.642,1.642,0,0,0,.038.287Z" transform="translate(-8.866 -9.079)"/>
        <path id="Tracé_171" data-name="Tracé 171" class="cls-2" d="M54.723,87.208a1.445,1.445,0,0,0,.539.941,1.276,1.276,0,0,0,1.008.248,1.211,1.211,0,0,0,.851-.595,1.492,1.492,0,0,0,.161-1.08,1.59,1.59,0,0,0-.087-.275l-.617.141-.624.111-1.248.223a1.626,1.626,0,0,0,.018.285Z" transform="translate(-8.866 -9.079)"/>
        <path id="Tracé_172" data-name="Tracé 172" class="cls-2" d="M52.133,87.5a1.491,1.491,0,0,0,.475.982,1.231,1.231,0,0,0,.455.27,1.256,1.256,0,0,0,.534.046,1.282,1.282,0,0,0,.889-.539,1.447,1.447,0,0,0,.236-1.057,1.6,1.6,0,0,0-.069-.281l-1.259.164-.629.079-.632.048A1.633,1.633,0,0,0,52.133,87.5Z" transform="translate(-8.866 -9.079)"/>
        <path id="Tracé_173" data-name="Tracé 173" class="cls-2" d="M49.531,87.632a1.472,1.472,0,0,0,.408,1.009,1.226,1.226,0,0,0,1.888-.1,1.472,1.472,0,0,0,.305-1.045,1.6,1.6,0,0,0-.05-.285l-1.264.1-1.267.031a1.641,1.641,0,0,0-.021.29Z" transform="translate(-8.866 -9.079)"/>
        <path id="Tracé_174" data-name="Tracé 174" class="cls-2" d="M46.925,87.6a1.447,1.447,0,0,0,.341,1.033,1.276,1.276,0,0,0,.938.446,1.209,1.209,0,0,0,.952-.412,1.493,1.493,0,0,0,.375-1.03,1.588,1.588,0,0,0-.03-.287l-.634.016-.634-.017-1.267-.031a1.648,1.648,0,0,0-.04.283Z" transform="translate(-8.866 -9.079)"/>
        <path id="Tracé_175" data-name="Tracé 175" class="cls-2" d="M44.329,87.372a1.494,1.494,0,0,0,.27,1.063,1.213,1.213,0,0,0,.907.5,1.276,1.276,0,0,0,.982-.349,1.445,1.445,0,0,0,.442-.99,1.581,1.581,0,0,0-.012-.288l-1.264-.1-.632-.048c-.21-.022-.419-.052-.629-.078a1.634,1.634,0,0,0-.063.284Z" transform="translate(-8.866 -9.079)"/>
        <path id="Tracé_176" data-name="Tracé 176" class="cls-2" d="M41.754,86.98a1.472,1.472,0,0,0,.2,1.071,1.227,1.227,0,0,0,1.865.284,1.472,1.472,0,0,0,.507-.963,1.6,1.6,0,0,0,.008-.289l-1.257-.16L41.825,86.7A1.642,1.642,0,0,0,41.754,86.98Z" transform="translate(-8.866 -9.079)"/>
        <path id="Tracé_177" data-name="Tracé 177" class="cls-2" d="M39.209,86.425a1.445,1.445,0,0,0,.127,1.08,1.276,1.276,0,0,0,.829.625,1.209,1.209,0,0,0,1.016-.213,1.492,1.492,0,0,0,.573-.933,1.589,1.589,0,0,0,.027-.288l-.624-.112-.62-.145L39.3,86.154A1.627,1.627,0,0,0,39.209,86.425Z" transform="translate(-8.866 -9.079)"/>
        <path id="Tracé_178" data-name="Tracé 178" class="cls-2" d="M36.709,85.678a1.488,1.488,0,0,0,.05,1.093,1.276,1.276,0,0,0,.312.428,1.256,1.256,0,0,0,.472.252,1.283,1.283,0,0,0,1.031-.146,1.447,1.447,0,0,0,.632-.883,1.6,1.6,0,0,0,.047-.286l-1.219-.346c-.2-.059-.407-.112-.609-.177l-.6-.2a1.636,1.636,0,0,0-.117.268Z" transform="translate(-8.866 -9.079)"/>
        <path id="Tracé_179" data-name="Tracé 179" class="cls-2" d="M34.269,84.776a1.462,1.462,0,0,0-.022,1.088,1.3,1.3,0,0,0,.733.743,1.128,1.128,0,0,0,.534.069,1.337,1.337,0,0,0,.506-.155,1.472,1.472,0,0,0,.693-.842,1.594,1.594,0,0,0,.066-.282l-.6-.2-.3-.1-.15-.051-.147-.058L34.4,84.523A1.643,1.643,0,0,0,34.269,84.776Z" transform="translate(-8.866 -9.079)"/>
        <path id="Tracé_180" data-name="Tracé 180" class="cls-2" d="M31.892,83.709a1.482,1.482,0,0,0-.1,1.089,1.276,1.276,0,0,0,.687.774,1.255,1.255,0,0,0,1.036,0,1.5,1.5,0,0,0,.751-.8,1.587,1.587,0,0,0,.084-.276c-.393-.146-.776-.333-1.162-.5l-.577-.261-.289-.131c-.1-.044-.188-.1-.283-.142A1.63,1.63,0,0,0,31.892,83.709Z" transform="translate(-8.866 -9.079)"/>
        <path id="Tracé_181" data-name="Tracé 181" class="cls-2" d="M29.6,82.477a1.472,1.472,0,0,0-.171,1.08,1.342,1.342,0,0,0,.22.482,1.055,1.055,0,0,0,.407.349,1.292,1.292,0,0,0,1.04.059,1.458,1.458,0,0,0,.8-.736A1.6,1.6,0,0,0,32,83.439l-1.128-.578c-.1-.049-.189-.1-.281-.146l-.275-.158-.55-.316a1.639,1.639,0,0,0-.168.237Z" transform="translate(-8.866 -9.079)"/>
        <path id="Tracé_182" data-name="Tracé 182" class="cls-2" d="M27.384,81.1a1.45,1.45,0,0,0-.239,1.057,1.285,1.285,0,0,0,.572.869,1.219,1.219,0,0,0,.5.186,1.352,1.352,0,0,0,.529-.052,1.484,1.484,0,0,0,.85-.687,1.591,1.591,0,0,0,.122-.262l-.55-.316-.137-.079-.133-.085-.268-.171-1.067-.687a1.648,1.648,0,0,0-.181.228Z" transform="translate(-8.866 -9.079)"/>
        <path id="Tracé_183" data-name="Tracé 183" class="cls-2" d="M25.275,79.572a1.49,1.49,0,0,0-.316,1.048,1.211,1.211,0,0,0,.515.9,1.276,1.276,0,0,0,1.018.206,1.38,1.38,0,0,0,.491-.213,1.547,1.547,0,0,0,.4-.409,1.583,1.583,0,0,0,.138-.252c-.347-.24-.687-.491-1.035-.732l-.516-.367-.5-.393a1.634,1.634,0,0,0-.2.211Z" transform="translate(-8.866 -9.079)"/>
        <path id="Tracé_184" data-name="Tracé 184" class="cls-2" d="M23.27,77.909a1.462,1.462,0,0,0-.381,1.019,1.3,1.3,0,0,0,.445.943,1.267,1.267,0,0,0,1.008.264,1.472,1.472,0,0,0,.932-.563,1.6,1.6,0,0,0,.156-.243c-.331-.263-.668-.517-.993-.785l-.958-.83a1.644,1.644,0,0,0-.209.2Z" transform="translate(-8.866 -9.079)"/>
        <path id="Tracé_185" data-name="Tracé 185" class="cls-2" d="M21.38,76.115a1.488,1.488,0,0,0-.454,1,1.276,1.276,0,0,0,.393.958,1.257,1.257,0,0,0,.982.345,1.5,1.5,0,0,0,.974-.505,1.586,1.586,0,0,0,.172-.232c-.326-.27-.622-.571-.93-.861l-.458-.438-.23-.219-.219-.229a1.631,1.631,0,0,0-.228.185Z" transform="translate(-8.866 -9.079)"/>
        <path id="Tracé_186" data-name="Tracé 186" class="cls-2" d="M19.62,74.194a1.472,1.472,0,0,0-.516.961,1.34,1.34,0,0,0,.048.527,1.291,1.291,0,0,0,.1.247,1.1,1.1,0,0,0,.165.218,1.293,1.293,0,0,0,.963.4,1.459,1.459,0,0,0,1-.431,1.6,1.6,0,0,0,.187-.221l-.875-.918c-.149-.15-.284-.313-.423-.472l-.415-.479a1.639,1.639,0,0,0-.235.169Z" transform="translate(-8.866 -9.079)"/>
        <path id="Tracé_187" data-name="Tracé 187" class="cls-2" d="M17.981,72.168a1.448,1.448,0,0,0-.574.919,1.283,1.283,0,0,0,.255,1.008,1.257,1.257,0,0,0,.412.342,1.322,1.322,0,0,0,.515.126,1.486,1.486,0,0,0,1.03-.368,1.59,1.59,0,0,0,.2-.207l-.415-.479c-.138-.16-.263-.331-.393-.491l-.785-1a1.648,1.648,0,0,0-.241.147Z" transform="translate(-8.866 -9.079)"/>
        <path id="Tracé_188" data-name="Tracé 188" class="cls-2" d="M16.5,70.024a1.488,1.488,0,0,0-.644.883,1.276,1.276,0,0,0-.024.529,1.256,1.256,0,0,0,.211.491,1.282,1.282,0,0,0,.894.529,1.446,1.446,0,0,0,1.044-.294,1.592,1.592,0,0,0,.214-.2l-.734-1.034c-.122-.173-.247-.343-.365-.518l-.342-.534A1.635,1.635,0,0,0,16.5,70.024Z" transform="translate(-8.866 -9.079)"/>
        <path id="Tracé_189" data-name="Tracé 189" class="cls-2" d="M15.154,67.793a1.461,1.461,0,0,0-.7.835,1.3,1.3,0,0,0,.11,1.037,1.117,1.117,0,0,0,.373.393,1.338,1.338,0,0,0,.491.2A1.472,1.472,0,0,0,16.5,70.03a1.594,1.594,0,0,0,.227-.179l-.343-.534c-.112-.18-.234-.352-.335-.538l-.632-1.1A1.643,1.643,0,0,0,15.154,67.793Z" transform="translate(-8.866 -9.079)"/>
        <path id="Tracé_190" data-name="Tracé 190" class="cls-2" d="M13.965,65.476a1.5,1.5,0,0,0-.76.79,1.27,1.27,0,0,0,.863,1.683,1.5,1.5,0,0,0,1.087-.156,1.588,1.588,0,0,0,.239-.162l-.158-.275c-.051-.092-.1-.187-.146-.281l-.289-.564-.289-.564-.145-.284-.134-.287a1.631,1.631,0,0,0-.267.1Z" transform="translate(-8.866 -9.079)"/>
        <path id="Tracé_191" data-name="Tracé 191" class="cls-2" d="M12.94,63.08a1.472,1.472,0,0,0-.806.735,1.34,1.34,0,0,0-.13.513,1.292,1.292,0,0,0,.016.268,1.08,1.08,0,0,0,.083.26,1.294,1.294,0,0,0,.777.695,1.458,1.458,0,0,0,1.08-.077,1.6,1.6,0,0,0,.249-.146l-.522-1.154c-.091-.19-.164-.393-.242-.589L13.213,63a1.64,1.64,0,0,0-.273.083Z" transform="translate(-8.866 -9.079)"/>
        <path id="Tracé_192" data-name="Tracé 192" class="cls-2" d="M12.073,60.625a1.449,1.449,0,0,0-.847.676,1.284,1.284,0,0,0-.1,1.035,1.253,1.253,0,0,0,.275.459,1.353,1.353,0,0,0,.446.29,1.485,1.485,0,0,0,1.093-.006,1.59,1.59,0,0,0,.258-.129l-.233-.589c-.04-.1-.075-.2-.108-.294l-.1-.3-.409-1.208A1.648,1.648,0,0,0,12.073,60.625Z" transform="translate(-8.866 -9.079)"/>
        <path id="Tracé_193" data-name="Tracé 193" class="cls-2" d="M11.386,58.113a1.493,1.493,0,0,0-.9.619,1.213,1.213,0,0,0-.16,1.026,1.276,1.276,0,0,0,.665.8,1.374,1.374,0,0,0,.516.14,1.548,1.548,0,0,0,.568-.069,1.583,1.583,0,0,0,.266-.111c-.121-.4-.232-.813-.348-1.218l-.174-.61c-.052-.205-.1-.411-.144-.616a1.634,1.634,0,0,0-.287.041Z" transform="translate(-8.866 -9.079)"/>
        <path id="Tracé_194" data-name="Tracé 194" class="cls-2" d="M10.86,55.561a1.472,1.472,0,0,0-.936.556,1.226,1.226,0,0,0,.382,1.852,1.472,1.472,0,0,0,1.08.143,1.6,1.6,0,0,0,.274-.092l-.285-1.235-.223-1.248a1.642,1.642,0,0,0-.292.024Z" transform="translate(-8.866 -9.079)"/>
        <path id="Tracé_195" data-name="Tracé 195" class="cls-2" d="M10.5,52.979a1.445,1.445,0,0,0-.967.491,1.276,1.276,0,0,0-.294.994,1.213,1.213,0,0,0,.55.883,1.493,1.493,0,0,0,1.074.216,1.588,1.588,0,0,0,.279-.074c-.036-.208-.077-.415-.109-.624l-.08-.629L10.8,52.979a1.627,1.627,0,0,0-.293,0Z" transform="translate(-8.866 -9.079)"/>
        <path id="Tracé_196" data-name="Tracé 196" class="cls-2" d="M10.34,50.378a1.492,1.492,0,0,0-1.009.425,1.219,1.219,0,0,0-.294.441,1.256,1.256,0,0,0-.074.53,1.282,1.282,0,0,0,.491.915,1.447,1.447,0,0,0,1.048.291,1.6,1.6,0,0,0,.284-.055l-.1-1.264-.047-.632-.016-.634a1.634,1.634,0,0,0-.285-.016Z" transform="translate(-8.866 -9.079)"/>
        <path id="Tracé_197" data-name="Tracé 197" class="cls-2" d="M10.34,47.773a1.472,1.472,0,0,0-1.029.357,1.225,1.225,0,0,0,0,1.89,1.472,1.472,0,0,0,1.029.357,1.6,1.6,0,0,0,.287-.035l-.032-1.267.032-1.267a1.639,1.639,0,0,0-.287-.035Z" transform="translate(-8.866 -9.079)"/>
        <path id="Tracé_198" data-name="Tracé 198" class="cls-2" d="M10.5,45.172a1.447,1.447,0,0,0-1.044.289,1.281,1.281,0,0,0-.491.915,1.256,1.256,0,0,0,.074.531,1.219,1.219,0,0,0,.294.442,1.492,1.492,0,0,0,1.009.426,1.588,1.588,0,0,0,.288-.017l.016-.634.047-.632.1-1.264a1.648,1.648,0,0,0-.291-.055Z" transform="translate(-8.866 -9.079)"/>
        <path id="Tracé_199" data-name="Tracé 199" class="cls-2" d="M10.86,42.591a1.493,1.493,0,0,0-1.074.216,1.212,1.212,0,0,0-.55.883,1.276,1.276,0,0,0,.294.994,1.445,1.445,0,0,0,.967.491,1.583,1.583,0,0,0,.288,0l.159-1.257.08-.629c.032-.209.074-.416.109-.624A1.633,1.633,0,0,0,10.86,42.591Z" transform="translate(-8.866 -9.079)"/>
        <path id="Tracé_200" data-name="Tracé 200" class="cls-2" d="M11.386,40.039a1.472,1.472,0,0,0-1.08.143,1.226,1.226,0,0,0-.379,1.853,1.472,1.472,0,0,0,.936.556,1.6,1.6,0,0,0,.289.023l.223-1.248.285-1.235a1.64,1.64,0,0,0-.274-.092Z" transform="translate(-8.866 -9.079)"/>
        <path id="Tracé_201" data-name="Tracé 201" class="cls-2" d="M12.073,37.526a1.548,1.548,0,0,0-.568-.069,1.374,1.374,0,0,0-.516.14,1.276,1.276,0,0,0-.665.8,1.214,1.214,0,0,0,.16,1.026,1.493,1.493,0,0,0,.9.62,1.589,1.589,0,0,0,.286.042c.048-.205.092-.412.144-.616l.174-.61c.117-.406.228-.814.348-1.218a1.628,1.628,0,0,0-.265-.113Z" transform="translate(-8.866 -9.079)"/>
        <path id="Tracé_202" data-name="Tracé 202" class="cls-2" d="M12.94,35.072a1.485,1.485,0,0,0-1.093-.006,1.353,1.353,0,0,0-.446.29,1.252,1.252,0,0,0-.275.459,1.285,1.285,0,0,0,.1,1.035,1.449,1.449,0,0,0,.847.676,1.6,1.6,0,0,0,.283.061l.405-1.2.1-.3c.033-.1.067-.2.108-.294L13.2,35.2a1.636,1.636,0,0,0-.258-.132Z" transform="translate(-8.866 -9.079)"/>
        <path id="Tracé_203" data-name="Tracé 203" class="cls-2" d="M13.965,32.676a1.46,1.46,0,0,0-1.08-.078,1.294,1.294,0,0,0-.777.695,1.08,1.08,0,0,0-.083.26,1.292,1.292,0,0,0-.016.268,1.34,1.34,0,0,0,.13.513,1.472,1.472,0,0,0,.806.735,1.6,1.6,0,0,0,.278.08l.233-.589c.079-.2.151-.393.242-.589l.522-1.154A1.644,1.644,0,0,0,13.965,32.676Z" transform="translate(-8.866 -9.079)"/>
        <path id="Tracé_204" data-name="Tracé 204" class="cls-2" d="M15.154,30.358a1.5,1.5,0,0,0-1.087-.156,1.27,1.27,0,0,0-.863,1.683,1.5,1.5,0,0,0,.76.79,1.586,1.586,0,0,0,.271.1l.131-.289.144-.282.289-.564.289-.564c.049-.1.1-.188.146-.281l.158-.275a1.632,1.632,0,0,0-.238-.161Z" transform="translate(-8.866 -9.079)"/>
        <path id="Tracé_205" data-name="Tracé 205" class="cls-2" d="M16.5,28.127a1.472,1.472,0,0,0-1.067-.225,1.338,1.338,0,0,0-.491.2,1.117,1.117,0,0,0-.373.393,1.3,1.3,0,0,0-.11,1.037,1.46,1.46,0,0,0,.7.835,1.6,1.6,0,0,0,.264.117l.632-1.1c.1-.186.223-.358.335-.538l.343-.534A1.639,1.639,0,0,0,16.5,28.127Z" transform="translate(-8.866 -9.079)"/>
        <path id="Tracé_206" data-name="Tracé 206" class="cls-2" d="M17.981,25.984a1.447,1.447,0,0,0-1.044-.294,1.281,1.281,0,0,0-.894.529,1.256,1.256,0,0,0-.211.491,1.276,1.276,0,0,0,.024.529,1.488,1.488,0,0,0,.644.883,1.59,1.59,0,0,0,.255.134l.342-.534c.117-.176.243-.345.365-.518L18.2,26.17a1.637,1.637,0,0,0-.214-.186Z" transform="translate(-8.866 -9.079)"/>
        <path id="Tracé_207" data-name="Tracé 207" class="cls-2" d="M19.62,23.958a1.486,1.486,0,0,0-1.03-.368,1.322,1.322,0,0,0-.515.126,1.255,1.255,0,0,0-.412.342,1.283,1.283,0,0,0-.255,1.008,1.448,1.448,0,0,0,.574.919,1.6,1.6,0,0,0,.246.152l.785-1c.133-.165.257-.336.393-.491l.415-.479a1.635,1.635,0,0,0-.2-.212Z" transform="translate(-8.866 -9.079)"/>
        <path id="Tracé_208" data-name="Tracé 208" class="cls-2" d="M21.38,22.037a1.459,1.459,0,0,0-1-.431,1.293,1.293,0,0,0-.963.4,1.1,1.1,0,0,0-.165.218,1.291,1.291,0,0,0-.1.247A1.34,1.34,0,0,0,19.1,23a1.472,1.472,0,0,0,.516.961,1.594,1.594,0,0,0,.236.168l.415-.479c.138-.159.274-.322.423-.472l.875-.918A1.644,1.644,0,0,0,21.38,22.037Z" transform="translate(-8.866 -9.079)"/>
        <path id="Tracé_209" data-name="Tracé 209" class="cls-2" d="M23.27,20.243a1.5,1.5,0,0,0-.974-.505,1.256,1.256,0,0,0-.982.345,1.276,1.276,0,0,0-.393.959,1.488,1.488,0,0,0,.454,1,1.585,1.585,0,0,0,.223.183l.219-.229.23-.219.458-.438c.308-.29.6-.589.93-.861a1.631,1.631,0,0,0-.167-.231Z" transform="translate(-8.866 -9.079)"/>
        <path id="Tracé_210" data-name="Tracé 210" class="cls-2" d="M25.275,18.58a1.472,1.472,0,0,0-.932-.563,1.267,1.267,0,0,0-1.009.264,1.3,1.3,0,0,0-.446.944,1.462,1.462,0,0,0,.381,1.019,1.6,1.6,0,0,0,.211.2l.96-.829c.325-.27.663-.524.993-.785A1.64,1.64,0,0,0,25.275,18.58Z" transform="translate(-8.866 -9.079)"/>
        <path id="Tracé_211" data-name="Tracé 211" class="cls-2" d="M27.384,17.047a1.547,1.547,0,0,0-.4-.409,1.381,1.381,0,0,0-.491-.214,1.276,1.276,0,0,0-1.018.206,1.211,1.211,0,0,0-.515.9,1.49,1.49,0,0,0,.316,1.048,1.589,1.589,0,0,0,.2.211l.5-.393.516-.367c.345-.243.687-.491,1.035-.732a1.627,1.627,0,0,0-.137-.252Z" transform="translate(-8.866 -9.079)"/>
        <path id="Tracé_212" data-name="Tracé 212" class="cls-2" d="M29.6,15.675a1.484,1.484,0,0,0-.85-.687,1.352,1.352,0,0,0-.529-.052,1.218,1.218,0,0,0-.5.186,1.285,1.285,0,0,0-.572.869,1.45,1.45,0,0,0,.241,1.057,1.6,1.6,0,0,0,.183.225l1.067-.687.267-.171.133-.085.137-.079.55-.316a1.636,1.636,0,0,0-.125-.259Z" transform="translate(-8.866 -9.079)"/>
        <path id="Tracé_213" data-name="Tracé 213" class="cls-2" d="M31.892,14.443a1.458,1.458,0,0,0-.8-.736,1.292,1.292,0,0,0-1.04.059,1.055,1.055,0,0,0-.408.349,1.342,1.342,0,0,0-.22.482,1.472,1.472,0,0,0,.171,1.08,1.594,1.594,0,0,0,.167.236l.55-.316.275-.158c.091-.053.187-.1.281-.146L32,14.713A1.645,1.645,0,0,0,31.892,14.443Z" transform="translate(-8.866 -9.079)"/>
        <path id="Tracé_214" data-name="Tracé 214" class="cls-2" d="M34.269,13.376a1.5,1.5,0,0,0-.751-.8,1.254,1.254,0,0,0-1.035,0,1.276,1.276,0,0,0-.687.774,1.482,1.482,0,0,0,.1,1.089,1.585,1.585,0,0,0,.15.246c.1-.047.186-.1.283-.142l.289-.131.577-.261c.386-.171.766-.358,1.162-.5a1.633,1.633,0,0,0-.085-.273Z" transform="translate(-8.866 -9.079)"/>
        <path id="Tracé_215" data-name="Tracé 215" class="cls-2" d="M36.709,12.474a1.472,1.472,0,0,0-.693-.842,1.337,1.337,0,0,0-.506-.155,1.128,1.128,0,0,0-.534.069,1.3,1.3,0,0,0-.733.743,1.461,1.461,0,0,0,.022,1.088,1.6,1.6,0,0,0,.133.256l1.178-.465.147-.058.15-.051.3-.1.6-.2A1.64,1.64,0,0,0,36.709,12.474Z" transform="translate(-8.866 -9.079)"/>
        <path id="Tracé_216" data-name="Tracé 216" class="cls-2" d="M39.209,11.727a1.447,1.447,0,0,0-.632-.883,1.282,1.282,0,0,0-1.029-.145,1.256,1.256,0,0,0-.473.252,1.276,1.276,0,0,0-.312.428,1.488,1.488,0,0,0-.05,1.093,1.59,1.59,0,0,0,.115.265l.6-.2c.2-.065.405-.117.609-.177l1.219-.346a1.649,1.649,0,0,0-.046-.284Z" transform="translate(-8.866 -9.079)"/>
        <path id="Tracé_217" data-name="Tracé 217" class="cls-2" d="M41.754,11.172a1.492,1.492,0,0,0-.573-.933,1.209,1.209,0,0,0-1.016-.213,1.276,1.276,0,0,0-.83.625,1.445,1.445,0,0,0-.127,1.08,1.583,1.583,0,0,0,.1.271l1.235-.285.617-.142.624-.112A1.635,1.635,0,0,0,41.754,11.172Z" transform="translate(-8.866 -9.079)"/>
        <path id="Tracé_218" data-name="Tracé 218" class="cls-2" d="M44.329,10.78a1.472,1.472,0,0,0-.507-.963,1.227,1.227,0,0,0-1.865.284,1.472,1.472,0,0,0-.2,1.071,1.6,1.6,0,0,0,.079.278l1.248-.222,1.257-.16a1.641,1.641,0,0,0-.015-.288Z" transform="translate(-8.866 -9.079)"/>
        <path id="Tracé_219" data-name="Tracé 219" class="cls-2" d="M46.925,10.553a1.445,1.445,0,0,0-.442-.99,1.276,1.276,0,0,0-.982-.349,1.213,1.213,0,0,0-.9.5,1.494,1.494,0,0,0-.27,1.062,1.589,1.589,0,0,0,.06.283c.21-.026.419-.056.629-.078l.632-.048,1.264-.1a1.627,1.627,0,0,0,.011-.285Z" transform="translate(-8.866 -9.079)"/>
        <path id="Tracé_220" data-name="Tracé 220" class="cls-2" d="M49.531,10.52a1.493,1.493,0,0,0-.375-1.03,1.208,1.208,0,0,0-.952-.412,1.276,1.276,0,0,0-.938.443,1.447,1.447,0,0,0-.341,1.029,1.6,1.6,0,0,0,.04.287l1.267-.031.634-.017.634.016a1.633,1.633,0,0,0,.03-.284Z" transform="translate(-8.866 -9.079)"/>
        <path id="Tracé_221" data-name="Tracé 221" class="cls-2" d="M52.133,10.65a1.472,1.472,0,0,0-.309-1.045,1.226,1.226,0,0,0-1.888-.1,1.472,1.472,0,0,0-.408,1.009,1.6,1.6,0,0,0,.022.289l1.267.031,1.264.1A1.641,1.641,0,0,0,52.133,10.65Z" transform="translate(-8.866 -9.079)"/>
        <path id="Tracé_222" data-name="Tracé 222" class="cls-2" d="M54.723,10.944a1.447,1.447,0,0,0-.236-1.057,1.281,1.281,0,0,0-.888-.539,1.256,1.256,0,0,0-.534.046,1.231,1.231,0,0,0-.455.27,1.491,1.491,0,0,0-.476.982,1.589,1.589,0,0,0,0,.289l.632.048.629.079,1.257.16a1.648,1.648,0,0,0,.071-.277Z" transform="translate(-8.866 -9.079)"/>
        <path id="Tracé_223" data-name="Tracé 223" class="cls-2" d="M57.281,11.433a1.492,1.492,0,0,0-.161-1.08,1.21,1.21,0,0,0-.851-.595,1.276,1.276,0,0,0-1.01.245,1.445,1.445,0,0,0-.539.94,1.583,1.583,0,0,0-.018.288l1.248.223.624.111.617.141a1.634,1.634,0,0,0,.089-.274Z" transform="translate(-8.866 -9.079)"/>
        <path id="Tracé_224" data-name="Tracé 224" class="cls-2" d="M59.8,12.082A1.466,1.466,0,0,0,59.715,11a1.228,1.228,0,0,0-1.831-.473,1.472,1.472,0,0,0-.6.907,1.6,1.6,0,0,0-.037.287L58.48,12l1.219.346a1.642,1.642,0,0,0,.105-.269Z" transform="translate(-8.866 -9.079)"/>
        <path id="Tracé_225" data-name="Tracé 225" class="cls-2" d="M62.278,12.9a1.454,1.454,0,0,0-.015-1.089,1.276,1.276,0,0,0-.763-.7,1.257,1.257,0,0,0-.785-.007,1.353,1.353,0,0,0-.242.114,1.494,1.494,0,0,0-.665.871,1.588,1.588,0,0,0-.056.283c.2.06.407.111.609.178l.6.2.6.2.3.1c.1.033.2.066.294.107a1.629,1.629,0,0,0,.124-.257Z" transform="translate(-8.866 -9.079)"/>
        <path id="Tracé_226" data-name="Tracé 226" class="cls-2" d="M64.682,13.893a1.483,1.483,0,0,0,.061-1.091,1.351,1.351,0,0,0-.267-.459,1.178,1.178,0,0,0-.444-.3,1.287,1.287,0,0,0-1.04.043,1.452,1.452,0,0,0-.718.813,1.6,1.6,0,0,0-.076.279c.785.315,1.579.6,2.342.968a1.636,1.636,0,0,0,.142-.251Z" transform="translate(-8.866 -9.079)"/>
        <path id="Tracé_227" data-name="Tracé 227" class="cls-2" d="M67.027,15.037a1.457,1.457,0,0,0,.132-1.08,1.291,1.291,0,0,0-.656-.81,1.267,1.267,0,0,0-.255-.1,1.135,1.135,0,0,0-.266-.03,1.344,1.344,0,0,0-.52.1,1.477,1.477,0,0,0-.775.769,1.593,1.593,0,0,0-.1.273l.585.264.289.131c.1.046.188.1.283.143l1.128.578a1.646,1.646,0,0,0,.155-.243Z" transform="translate(-8.866 -9.079)"/>
        <path id="Tracé_228" data-name="Tracé 228" class="cls-2" d="M69.279,16.344a1.5,1.5,0,0,0,.21-1.08,1.245,1.245,0,0,0-.606-.841,1.276,1.276,0,0,0-1.032-.106,1.472,1.472,0,0,0-.826.716,1.585,1.585,0,0,0-.112.265c.19.092.372.2.555.305l.55.316c.365.212.737.414,1.088.65a1.631,1.631,0,0,0,.174-.225Z" transform="translate(-8.866 -9.079)"/>
        <path id="Tracé_229" data-name="Tracé 229" class="cls-2" d="M71.441,17.8a1.472,1.472,0,0,0,.278-1.053,1.276,1.276,0,0,0-.537-.9,1.3,1.3,0,0,0-1.032-.16,1.463,1.463,0,0,0-.87.654,1.6,1.6,0,0,0-.131.258l1.067.687c.348.239.687.491,1.035.731A1.64,1.64,0,0,0,71.441,17.8Z" transform="translate(-8.866 -9.079)"/>
        <path id="Tracé_230" data-name="Tracé 230" class="cls-2" d="M73.5,19.39a1.558,1.558,0,0,0,.28-.5,1.374,1.374,0,0,0,.067-.531,1.276,1.276,0,0,0-.485-.918,1.215,1.215,0,0,0-1.01-.24,1.491,1.491,0,0,0-.917.6,1.589,1.589,0,0,0-.147.248c.172.123.346.243.515.368l.5.393c.331.263.667.518.994.785a1.627,1.627,0,0,0,.2-.205Z" transform="translate(-8.866 -9.079)"/>
        <path id="Tracé_231" data-name="Tracé 231" class="cls-2" d="M75.446,21.127a1.482,1.482,0,0,0,.419-1.006,1.349,1.349,0,0,0-.1-.521,1.171,1.171,0,0,0-.319-.431,1.286,1.286,0,0,0-1-.3,1.452,1.452,0,0,0-.947.528,1.6,1.6,0,0,0-.164.239c.635.558,1.29,1.093,1.889,1.69a1.636,1.636,0,0,0,.215-.2Z" transform="translate(-8.866 -9.079)"/>
        <path id="Tracé_232" data-name="Tracé 232" class="cls-2" d="M77.278,22.98a1.456,1.456,0,0,0,.48-.974,1.29,1.29,0,0,0-.351-.982,1.221,1.221,0,0,0-.974-.368,1.478,1.478,0,0,0-.982.468,1.593,1.593,0,0,0-.18.227l.458.438.23.219.219.23.875.918A1.645,1.645,0,0,0,77.278,22.98Z" transform="translate(-8.866 -9.079)"/>
        <path id="Tracé_233" data-name="Tracé 233" class="cls-2" d="M78.973,24.959a1.5,1.5,0,0,0,.553-.946,1.184,1.184,0,0,0-.035-.524,1.259,1.259,0,0,0-.257-.47,1.276,1.276,0,0,0-.939-.44,1.35,1.35,0,0,0-.265.02,1.48,1.48,0,0,0-.265.077,1.555,1.555,0,0,0-.485.3,1.585,1.585,0,0,0-.2.213c.149.149.282.314.422.473l.415.479.415.479a3.07,3.07,0,0,1,.2.245l.2.249a1.632,1.632,0,0,0,.245-.159Z" transform="translate(-8.866 -9.079)"/>
        <path id="Tracé_234" data-name="Tracé 234" class="cls-2" d="M80.533,27.046a1.472,1.472,0,0,0,.61-.9A1.228,1.228,0,0,0,80.01,24.63a1.466,1.466,0,0,0-1.037.33,1.6,1.6,0,0,0-.208.2l.785,1,.733,1.036a1.641,1.641,0,0,0,.25-.142Z" transform="translate(-8.866 -9.079)"/>
        <path id="Tracé_235" data-name="Tracé 235" class="cls-2" d="M81.957,29.229a1.459,1.459,0,0,0,.669-.86,1.276,1.276,0,0,0-.156-1.026,1.258,1.258,0,0,0-.611-.5,1.365,1.365,0,0,0-.26-.063,1.494,1.494,0,0,0-1.063.264,1.588,1.588,0,0,0-.221.186c.121.174.248.342.364.519l.342.534.342.534.171.267.085.133.079.137A1.628,1.628,0,0,0,81.957,29.229Z" transform="translate(-8.866 -9.079)"/>
        <path id="Tracé_236" data-name="Tracé 236" class="cls-2" d="M83.216,31.507a1.481,1.481,0,0,0,.728-.814,1.213,1.213,0,0,0-.079-1.037,1.288,1.288,0,0,0-.84-.614,1.453,1.453,0,0,0-1.069.187,1.6,1.6,0,0,0-.234.171l.626,1.1.158.275c.054.091.1.187.147.281l.289.564a1.637,1.637,0,0,0,.273-.111Z" transform="translate(-8.866 -9.079)"/>
        <path id="Tracé_237" data-name="Tracé 237" class="cls-2" d="M84.331,33.862a1.455,1.455,0,0,0,.775-.76,1.289,1.289,0,0,0-.008-1.041,1.217,1.217,0,0,0-.8-.669,1.48,1.48,0,0,0-1.086.115,1.593,1.593,0,0,0-.244.154l.289.564c.047.1.1.187.143.283l.131.289.522,1.154A1.646,1.646,0,0,0,84.331,33.862Z" transform="translate(-8.866 -9.079)"/>
        <path id="Tracé_238" data-name="Tracé 238" class="cls-2" d="M85.273,36.292a1.5,1.5,0,0,0,.836-.709,1.188,1.188,0,0,0,.139-.506,1.26,1.26,0,0,0-.086-.529,1.276,1.276,0,0,0-.74-.726,1.347,1.347,0,0,0-.256-.069,1.472,1.472,0,0,0-.276-.016,1.556,1.556,0,0,0-.558.127,1.584,1.584,0,0,0-.253.137c.091.19.162.393.24.589l.233.589.233.589.058.147.051.15.1.3A1.634,1.634,0,0,0,85.273,36.292Z" transform="translate(-8.866 -9.079)"/>
        <path id="Tracé_239" data-name="Tracé 239" class="cls-2" d="M86.051,38.778a1.472,1.472,0,0,0,.876-.649,1.276,1.276,0,0,0,.14-1.035,1.3,1.3,0,0,0-.706-.77,1.464,1.464,0,0,0-1.088-.033,1.6,1.6,0,0,0-.263.12l.406,1.2c.124.4.233.812.349,1.218A1.641,1.641,0,0,0,86.051,38.778Z" transform="translate(-8.866 -9.079)"/>
        <path id="Tracé_240" data-name="Tracé 240" class="cls-2" d="M86.668,41.309a1.446,1.446,0,0,0,.911-.589,1.276,1.276,0,0,0,.2-1.02,1.258,1.258,0,0,0-.229-.485,1.222,1.222,0,0,0-.41-.335,1.49,1.49,0,0,0-1.089-.105,1.59,1.59,0,0,0-.27.1l.174.61.143.617.286,1.235a1.647,1.647,0,0,0,.289-.026Z" transform="translate(-8.866 -9.079)"/>
        <path id="Tracé_241" data-name="Tracé 241" class="cls-2" d="M87.093,43.88a1.491,1.491,0,0,0,.961-.525,1.221,1.221,0,0,0,.245-.468,1.256,1.256,0,0,0,.02-.535,1.281,1.281,0,0,0-.582-.861,1.446,1.446,0,0,0-1.069-.182,1.6,1.6,0,0,0-.277.083l.223,1.248.111.624.079.629A1.634,1.634,0,0,0,87.093,43.88Z" transform="translate(-8.866 -9.079)"/>
        <path id="Tracé_242" data-name="Tracé 242" class="cls-2" d="M87.355,46.472a1.472,1.472,0,0,0,.987-.458,1.227,1.227,0,0,0-.188-1.882,1.472,1.472,0,0,0-1.06-.252,1.6,1.6,0,0,0-.282.064L86.97,45.2l.1,1.264a1.642,1.642,0,0,0,.287.007Z" transform="translate(-8.866 -9.079)"/>
        <path id="Tracé_243" data-name="Tracé 243" class="cls-2" d="M87.453,49.076a1.446,1.446,0,0,0,1.01-.393,1.276,1.276,0,0,0,.4-.959,1.212,1.212,0,0,0-.458-.93,1.494,1.494,0,0,0-1.047-.322,1.589,1.589,0,0,0-.285.045c.015.211.034.421.046.632l.016.634.032,1.267A1.648,1.648,0,0,0,87.453,49.076Z" transform="translate(-8.866 -9.079)"/>
      </g>
    </g>
    <g id="Groupe_de_masques_8" data-name="Groupe de masques 8" class="cls-5" transform="translate(-756 94)">
      <g id="pinterest" transform="translate(1408.003 -38.998)">
        <path id="Tracé_244" data-name="Tracé 244" class="cls-2" d="M87.355,51.68a1.494,1.494,0,0,0,1.047-.323,1.211,1.211,0,0,0,.458-.93,1.276,1.276,0,0,0-.4-.959,1.446,1.446,0,0,0-1.01-.392,1.6,1.6,0,0,0-.289.027l-.032,1.267L87.116,51c-.012.211-.031.421-.046.632A1.631,1.631,0,0,0,87.355,51.68Z" transform="translate(-8.866 -9.079)"/>
        <path id="Tracé_245" data-name="Tracé 245" class="cls-2" d="M87.093,54.272a1.472,1.472,0,0,0,1.06-.252,1.227,1.227,0,0,0,.188-1.882,1.472,1.472,0,0,0-.986-.458,1.6,1.6,0,0,0-.289.007l-.1,1.264-.158,1.257A1.64,1.64,0,0,0,87.093,54.272Z" transform="translate(-8.866 -9.079)"/>
        <path id="Tracé_246" data-name="Tracé 246" class="cls-2" d="M86.668,56.843a1.446,1.446,0,0,0,1.068-.182,1.276,1.276,0,0,0,.582-.861,1.257,1.257,0,0,0-.02-.536,1.221,1.221,0,0,0-.245-.468,1.491,1.491,0,0,0-.961-.525,1.588,1.588,0,0,0-.289-.013l-.079.629-.111.624-.223,1.248a1.649,1.649,0,0,0,.278.083Z" transform="translate(-8.866 -9.079)"/>
        <path id="Tracé_247" data-name="Tracé 247" class="cls-2" d="M86.051,59.374a1.49,1.49,0,0,0,1.089-.105,1.222,1.222,0,0,0,.41-.335,1.256,1.256,0,0,0,.229-.485,1.281,1.281,0,0,0-.2-1.02,1.445,1.445,0,0,0-.911-.589,1.6,1.6,0,0,0-.288-.032L86.1,58.043l-.143.617-.171.611A1.634,1.634,0,0,0,86.051,59.374Z" transform="translate(-8.866 -9.079)"/>
        <path id="Tracé_248" data-name="Tracé 248" class="cls-2" d="M85.273,61.86a1.464,1.464,0,0,0,1.088-.033,1.3,1.3,0,0,0,.706-.77,1.276,1.276,0,0,0-.14-1.035,1.472,1.472,0,0,0-.876-.649,1.6,1.6,0,0,0-.285-.052c-.117.405-.227.814-.349,1.218l-.406,1.2A1.642,1.642,0,0,0,85.273,61.86Z" transform="translate(-8.866 -9.079)"/>
        <path id="Tracé_249" data-name="Tracé 249" class="cls-2" d="M84.331,64.289a1.555,1.555,0,0,0,.558.127,1.472,1.472,0,0,0,.276-.016,1.348,1.348,0,0,0,.256-.069,1.276,1.276,0,0,0,.74-.726,1.261,1.261,0,0,0,.087-.529,1.187,1.187,0,0,0-.139-.506,1.5,1.5,0,0,0-.836-.709,1.589,1.589,0,0,0-.28-.071l-.1.3-.051.15-.058.147-.233.589-.233.589c-.08.2-.149.393-.24.589a1.629,1.629,0,0,0,.25.134Z" transform="translate(-8.866 -9.079)"/>
        <path id="Tracé_250" data-name="Tracé 250" class="cls-2" d="M83.216,66.645a1.48,1.48,0,0,0,1.086.117,1.216,1.216,0,0,0,.8-.669,1.29,1.29,0,0,0,.008-1.041,1.454,1.454,0,0,0-.775-.76,1.6,1.6,0,0,0-.275-.089l-.522,1.154-.131.289c-.045.1-.1.188-.143.283l-.289.564A1.637,1.637,0,0,0,83.216,66.645Z" transform="translate(-8.866 -9.079)"/>
        <path id="Tracé_251" data-name="Tracé 251" class="cls-2" d="M81.957,68.923a1.454,1.454,0,0,0,1.069.186,1.288,1.288,0,0,0,.84-.614,1.213,1.213,0,0,0,.079-1.037,1.481,1.481,0,0,0-.728-.814,1.592,1.592,0,0,0-.268-.108l-.289.564c-.049.1-.1.189-.147.281l-.158.275-.632,1.1A1.648,1.648,0,0,0,81.957,68.923Z" transform="translate(-8.866 -9.079)"/>
        <path id="Tracé_252" data-name="Tracé 252" class="cls-2" d="M80.533,71.106a1.494,1.494,0,0,0,1.063.264,1.365,1.365,0,0,0,.26-.063,1.271,1.271,0,0,0,.769-1.521,1.459,1.459,0,0,0-.669-.86A1.586,1.586,0,0,0,81.7,68.8l-.079.137-.085.133-.171.267-.342.534-.339.53c-.115.178-.242.345-.364.519A1.633,1.633,0,0,0,80.533,71.106Z" transform="translate(-8.866 -9.079)"/>
        <path id="Tracé_253" data-name="Tracé 253" class="cls-2" d="M78.973,73.193a1.466,1.466,0,0,0,1.037.33,1.228,1.228,0,0,0,1.133-1.514,1.472,1.472,0,0,0-.61-.9,1.6,1.6,0,0,0-.251-.143L79.547,72l-.785,1a1.643,1.643,0,0,0,.211.2Z" transform="translate(-8.866 -9.079)"/>
        <path id="Tracé_254" data-name="Tracé 254" class="cls-2" d="M77.278,75.171a1.556,1.556,0,0,0,.485.3,1.479,1.479,0,0,0,.265.077,1.35,1.35,0,0,0,.265.02,1.276,1.276,0,0,0,.939-.44,1.26,1.26,0,0,0,.257-.47,1.184,1.184,0,0,0,.035-.524,1.5,1.5,0,0,0-.553-.946,1.588,1.588,0,0,0-.24-.159l-.2.249c-.065.083-.13.167-.2.245l-.418.479-.415.479c-.139.158-.273.323-.422.473A1.631,1.631,0,0,0,77.278,75.171Z" transform="translate(-8.866 -9.079)"/>
        <path id="Tracé_255" data-name="Tracé 255" class="cls-2" d="M75.446,77.025a1.478,1.478,0,0,0,.982.468,1.221,1.221,0,0,0,.974-.368,1.29,1.29,0,0,0,.351-.982,1.456,1.456,0,0,0-.48-.974,1.6,1.6,0,0,0-.23-.176l-.875.918-.219.23-.224.221-.458.438A1.638,1.638,0,0,0,75.446,77.025Z" transform="translate(-8.866 -9.079)"/>
        <path id="Tracé_256" data-name="Tracé 256" class="cls-2" d="M73.5,78.762a1.452,1.452,0,0,0,.947.528,1.286,1.286,0,0,0,1-.3,1.172,1.172,0,0,0,.319-.431,1.35,1.35,0,0,0,.1-.521,1.482,1.482,0,0,0-.419-1.009,1.59,1.59,0,0,0-.217-.19c-.6.6-1.253,1.133-1.889,1.689a1.648,1.648,0,0,0,.166.238Z" transform="translate(-8.866 -9.079)"/>
        <path id="Tracé_257" data-name="Tracé 257" class="cls-2" d="M71.441,80.353a1.491,1.491,0,0,0,.917.6,1.215,1.215,0,0,0,1.01-.24,1.276,1.276,0,0,0,.485-.918,1.374,1.374,0,0,0-.067-.531,1.558,1.558,0,0,0-.28-.5,1.584,1.584,0,0,0-.2-.2c-.327.268-.664.524-.994.785l-.5.393c-.171.125-.344.245-.515.368a1.633,1.633,0,0,0,.146.247Z" transform="translate(-8.866 -9.079)"/>
        <path id="Tracé_258" data-name="Tracé 258" class="cls-2" d="M69.279,81.807a1.464,1.464,0,0,0,.87.654,1.3,1.3,0,0,0,1.032-.16,1.276,1.276,0,0,0,.538-.9,1.472,1.472,0,0,0-.278-1.053,1.6,1.6,0,0,0-.189-.218c-.345.243-.687.491-1.035.731l-1.067.687A1.642,1.642,0,0,0,69.279,81.807Z" transform="translate(-8.866 -9.079)"/>
        <path id="Tracé_259" data-name="Tracé 259" class="cls-2" d="M67.027,83.115a1.472,1.472,0,0,0,.826.716,1.276,1.276,0,0,0,1.031-.107,1.245,1.245,0,0,0,.607-.841,1.5,1.5,0,0,0-.21-1.08,1.589,1.589,0,0,0-.175-.23c-.351.236-.722.439-1.088.65l-.55.316c-.183.105-.365.213-.555.305A1.63,1.63,0,0,0,67.027,83.115Z" transform="translate(-8.866 -9.079)"/>
        <path id="Tracé_260" data-name="Tracé 260" class="cls-2" d="M64.682,84.258a1.478,1.478,0,0,0,.775.769,1.344,1.344,0,0,0,.52.1,1.136,1.136,0,0,0,.266-.03A1.266,1.266,0,0,0,66.5,85a1.291,1.291,0,0,0,.656-.81,1.457,1.457,0,0,0-.132-1.08,1.6,1.6,0,0,0-.159-.241l-1.128.578c-.1.048-.187.1-.283.143l-.281.131-.577.261a1.639,1.639,0,0,0,.086.274Z" transform="translate(-8.866 -9.079)"/>
        <path id="Tracé_261" data-name="Tracé 261" class="cls-2" d="M62.278,85.254a1.452,1.452,0,0,0,.718.813,1.287,1.287,0,0,0,1.039.044,1.178,1.178,0,0,0,.444-.3,1.351,1.351,0,0,0,.267-.459,1.483,1.483,0,0,0-.061-1.091,1.592,1.592,0,0,0-.141-.251c-.763.365-1.558.653-2.342.968a1.647,1.647,0,0,0,.076.278Z" transform="translate(-8.866 -9.079)"/>
        <path id="Tracé_262" data-name="Tracé 262" class="cls-2" d="M59.8,86.069a1.5,1.5,0,0,0,.665.871,1.353,1.353,0,0,0,.242.114,1.257,1.257,0,0,0,.785-.007,1.276,1.276,0,0,0,.763-.7,1.454,1.454,0,0,0,.015-1.089,1.583,1.583,0,0,0-.124-.26c-.1.041-.2.074-.294.107l-.3.1-.6.206-.6.2c-.2.067-.405.118-.609.178a1.633,1.633,0,0,0,.06.283Z" transform="translate(-8.866 -9.079)"/>
        <path id="Tracé_263" data-name="Tracé 263" class="cls-2" d="M57.281,86.719a1.472,1.472,0,0,0,.6.907,1.228,1.228,0,0,0,1.831-.473,1.466,1.466,0,0,0,.088-1.085A1.6,1.6,0,0,0,59.7,85.8l-1.219.346-1.235.287a1.642,1.642,0,0,0,.038.287Z" transform="translate(-8.866 -9.079)"/>
        <path id="Tracé_264" data-name="Tracé 264" class="cls-2" d="M54.723,87.208a1.445,1.445,0,0,0,.539.941,1.276,1.276,0,0,0,1.008.248,1.211,1.211,0,0,0,.851-.595,1.492,1.492,0,0,0,.161-1.08,1.59,1.59,0,0,0-.087-.275l-.617.141-.624.111-1.248.223a1.626,1.626,0,0,0,.018.285Z" transform="translate(-8.866 -9.079)"/>
        <path id="Tracé_265" data-name="Tracé 265" class="cls-2" d="M52.133,87.5a1.491,1.491,0,0,0,.475.982,1.231,1.231,0,0,0,.455.27,1.256,1.256,0,0,0,.534.046,1.282,1.282,0,0,0,.889-.539,1.447,1.447,0,0,0,.236-1.057,1.6,1.6,0,0,0-.069-.281l-1.259.164-.629.079-.632.048A1.633,1.633,0,0,0,52.133,87.5Z" transform="translate(-8.866 -9.079)"/>
        <path id="Tracé_266" data-name="Tracé 266" class="cls-2" d="M49.531,87.632a1.472,1.472,0,0,0,.408,1.009,1.226,1.226,0,0,0,1.888-.1,1.472,1.472,0,0,0,.305-1.045,1.6,1.6,0,0,0-.05-.285l-1.264.1-1.267.031a1.641,1.641,0,0,0-.021.29Z" transform="translate(-8.866 -9.079)"/>
        <path id="Tracé_267" data-name="Tracé 267" class="cls-2" d="M46.925,87.6a1.447,1.447,0,0,0,.341,1.033,1.276,1.276,0,0,0,.938.446,1.209,1.209,0,0,0,.952-.412,1.493,1.493,0,0,0,.375-1.03,1.588,1.588,0,0,0-.03-.287l-.634.016-.634-.017-1.267-.031a1.648,1.648,0,0,0-.04.283Z" transform="translate(-8.866 -9.079)"/>
        <path id="Tracé_268" data-name="Tracé 268" class="cls-2" d="M44.329,87.372a1.494,1.494,0,0,0,.27,1.063,1.213,1.213,0,0,0,.907.5,1.276,1.276,0,0,0,.982-.349,1.445,1.445,0,0,0,.442-.99,1.581,1.581,0,0,0-.012-.288l-1.264-.1-.632-.048c-.21-.022-.419-.052-.629-.078a1.634,1.634,0,0,0-.063.284Z" transform="translate(-8.866 -9.079)"/>
        <path id="Tracé_269" data-name="Tracé 269" class="cls-2" d="M41.754,86.98a1.472,1.472,0,0,0,.2,1.071,1.227,1.227,0,0,0,1.865.284,1.472,1.472,0,0,0,.507-.963,1.6,1.6,0,0,0,.008-.289l-1.257-.16L41.825,86.7A1.642,1.642,0,0,0,41.754,86.98Z" transform="translate(-8.866 -9.079)"/>
        <path id="Tracé_270" data-name="Tracé 270" class="cls-2" d="M39.209,86.425a1.445,1.445,0,0,0,.127,1.08,1.276,1.276,0,0,0,.829.625,1.209,1.209,0,0,0,1.016-.213,1.492,1.492,0,0,0,.573-.933,1.589,1.589,0,0,0,.027-.288l-.624-.112-.62-.145L39.3,86.154A1.627,1.627,0,0,0,39.209,86.425Z" transform="translate(-8.866 -9.079)"/>
        <path id="Tracé_271" data-name="Tracé 271" class="cls-2" d="M36.709,85.678a1.488,1.488,0,0,0,.05,1.093,1.276,1.276,0,0,0,.312.428,1.256,1.256,0,0,0,.472.252,1.283,1.283,0,0,0,1.031-.146,1.447,1.447,0,0,0,.632-.883,1.6,1.6,0,0,0,.047-.286l-1.219-.346c-.2-.059-.407-.112-.609-.177l-.6-.2a1.636,1.636,0,0,0-.117.268Z" transform="translate(-8.866 -9.079)"/>
        <path id="Tracé_272" data-name="Tracé 272" class="cls-2" d="M34.269,84.776a1.462,1.462,0,0,0-.022,1.088,1.3,1.3,0,0,0,.733.743,1.128,1.128,0,0,0,.534.069,1.337,1.337,0,0,0,.506-.155,1.472,1.472,0,0,0,.693-.842,1.594,1.594,0,0,0,.066-.282l-.6-.2-.3-.1-.15-.051-.147-.058L34.4,84.523A1.643,1.643,0,0,0,34.269,84.776Z" transform="translate(-8.866 -9.079)"/>
        <path id="Tracé_273" data-name="Tracé 273" class="cls-2" d="M31.892,83.709a1.482,1.482,0,0,0-.1,1.089,1.276,1.276,0,0,0,.687.774,1.255,1.255,0,0,0,1.036,0,1.5,1.5,0,0,0,.751-.8,1.587,1.587,0,0,0,.084-.276c-.393-.146-.776-.333-1.162-.5l-.577-.261-.289-.131c-.1-.044-.188-.1-.283-.142A1.63,1.63,0,0,0,31.892,83.709Z" transform="translate(-8.866 -9.079)"/>
        <path id="Tracé_274" data-name="Tracé 274" class="cls-2" d="M29.6,82.477a1.472,1.472,0,0,0-.171,1.08,1.342,1.342,0,0,0,.22.482,1.055,1.055,0,0,0,.407.349,1.292,1.292,0,0,0,1.04.059,1.458,1.458,0,0,0,.8-.736A1.6,1.6,0,0,0,32,83.439l-1.128-.578c-.1-.049-.189-.1-.281-.146l-.275-.158-.55-.316a1.639,1.639,0,0,0-.168.237Z" transform="translate(-8.866 -9.079)"/>
        <path id="Tracé_275" data-name="Tracé 275" class="cls-2" d="M27.384,81.1a1.45,1.45,0,0,0-.239,1.057,1.285,1.285,0,0,0,.572.869,1.219,1.219,0,0,0,.5.186,1.352,1.352,0,0,0,.529-.052,1.484,1.484,0,0,0,.85-.687,1.591,1.591,0,0,0,.122-.262l-.55-.316-.137-.079-.133-.085-.268-.171-1.067-.687a1.648,1.648,0,0,0-.181.228Z" transform="translate(-8.866 -9.079)"/>
        <path id="Tracé_276" data-name="Tracé 276" class="cls-2" d="M25.275,79.572a1.49,1.49,0,0,0-.316,1.048,1.211,1.211,0,0,0,.515.9,1.276,1.276,0,0,0,1.018.206,1.38,1.38,0,0,0,.491-.213,1.547,1.547,0,0,0,.4-.409,1.583,1.583,0,0,0,.138-.252c-.347-.24-.687-.491-1.035-.732l-.516-.367-.5-.393a1.634,1.634,0,0,0-.2.211Z" transform="translate(-8.866 -9.079)"/>
        <path id="Tracé_277" data-name="Tracé 277" class="cls-2" d="M23.27,77.909a1.462,1.462,0,0,0-.381,1.019,1.3,1.3,0,0,0,.445.943,1.267,1.267,0,0,0,1.008.264,1.472,1.472,0,0,0,.932-.563,1.6,1.6,0,0,0,.156-.243c-.331-.263-.668-.517-.993-.785l-.958-.83a1.644,1.644,0,0,0-.209.2Z" transform="translate(-8.866 -9.079)"/>
        <path id="Tracé_278" data-name="Tracé 278" class="cls-2" d="M21.38,76.115a1.488,1.488,0,0,0-.454,1,1.276,1.276,0,0,0,.393.958,1.257,1.257,0,0,0,.982.345,1.5,1.5,0,0,0,.974-.505,1.586,1.586,0,0,0,.172-.232c-.326-.27-.622-.571-.93-.861l-.458-.438-.23-.219-.219-.229a1.631,1.631,0,0,0-.228.185Z" transform="translate(-8.866 -9.079)"/>
        <path id="Tracé_279" data-name="Tracé 279" class="cls-2" d="M19.62,74.194a1.472,1.472,0,0,0-.516.961,1.34,1.34,0,0,0,.048.527,1.291,1.291,0,0,0,.1.247,1.1,1.1,0,0,0,.165.218,1.293,1.293,0,0,0,.963.4,1.459,1.459,0,0,0,1-.431,1.6,1.6,0,0,0,.187-.221l-.875-.918c-.149-.15-.284-.313-.423-.472l-.415-.479a1.639,1.639,0,0,0-.235.169Z" transform="translate(-8.866 -9.079)"/>
        <path id="Tracé_280" data-name="Tracé 280" class="cls-2" d="M17.981,72.168a1.448,1.448,0,0,0-.574.919,1.283,1.283,0,0,0,.255,1.008,1.257,1.257,0,0,0,.412.342,1.322,1.322,0,0,0,.515.126,1.486,1.486,0,0,0,1.03-.368,1.59,1.59,0,0,0,.2-.207l-.415-.479c-.138-.16-.263-.331-.393-.491l-.785-1a1.648,1.648,0,0,0-.241.147Z" transform="translate(-8.866 -9.079)"/>
        <path id="Tracé_281" data-name="Tracé 281" class="cls-2" d="M16.5,70.024a1.488,1.488,0,0,0-.644.883,1.276,1.276,0,0,0-.024.529,1.256,1.256,0,0,0,.211.491,1.282,1.282,0,0,0,.894.529,1.446,1.446,0,0,0,1.044-.294,1.592,1.592,0,0,0,.214-.2l-.734-1.034c-.122-.173-.247-.343-.365-.518l-.342-.534A1.635,1.635,0,0,0,16.5,70.024Z" transform="translate(-8.866 -9.079)"/>
        <path id="Tracé_282" data-name="Tracé 282" class="cls-2" d="M15.154,67.793a1.461,1.461,0,0,0-.7.835,1.3,1.3,0,0,0,.11,1.037,1.117,1.117,0,0,0,.373.393,1.338,1.338,0,0,0,.491.2A1.472,1.472,0,0,0,16.5,70.03a1.594,1.594,0,0,0,.227-.179l-.343-.534c-.112-.18-.234-.352-.335-.538l-.632-1.1A1.643,1.643,0,0,0,15.154,67.793Z" transform="translate(-8.866 -9.079)"/>
        <path id="Tracé_283" data-name="Tracé 283" class="cls-2" d="M13.965,65.476a1.5,1.5,0,0,0-.76.79,1.27,1.27,0,0,0,.863,1.683,1.5,1.5,0,0,0,1.087-.156,1.588,1.588,0,0,0,.239-.162l-.158-.275c-.051-.092-.1-.187-.146-.281l-.289-.564-.289-.564-.145-.284-.134-.287a1.631,1.631,0,0,0-.267.1Z" transform="translate(-8.866 -9.079)"/>
        <path id="Tracé_284" data-name="Tracé 284" class="cls-2" d="M12.94,63.08a1.472,1.472,0,0,0-.806.735,1.34,1.34,0,0,0-.13.513,1.292,1.292,0,0,0,.016.268,1.08,1.08,0,0,0,.083.26,1.294,1.294,0,0,0,.777.695,1.458,1.458,0,0,0,1.08-.077,1.6,1.6,0,0,0,.249-.146l-.522-1.154c-.091-.19-.164-.393-.242-.589L13.213,63a1.64,1.64,0,0,0-.273.083Z" transform="translate(-8.866 -9.079)"/>
        <path id="Tracé_285" data-name="Tracé 285" class="cls-2" d="M12.073,60.625a1.449,1.449,0,0,0-.847.676,1.284,1.284,0,0,0-.1,1.035,1.253,1.253,0,0,0,.275.459,1.353,1.353,0,0,0,.446.29,1.485,1.485,0,0,0,1.093-.006,1.59,1.59,0,0,0,.258-.129l-.233-.589c-.04-.1-.075-.2-.108-.294l-.1-.3-.409-1.208A1.648,1.648,0,0,0,12.073,60.625Z" transform="translate(-8.866 -9.079)"/>
        <path id="Tracé_286" data-name="Tracé 286" class="cls-2" d="M11.386,58.113a1.493,1.493,0,0,0-.9.619,1.213,1.213,0,0,0-.16,1.026,1.276,1.276,0,0,0,.665.8,1.374,1.374,0,0,0,.516.14,1.548,1.548,0,0,0,.568-.069,1.583,1.583,0,0,0,.266-.111c-.121-.4-.232-.813-.348-1.218l-.174-.61c-.052-.205-.1-.411-.144-.616a1.634,1.634,0,0,0-.287.041Z" transform="translate(-8.866 -9.079)"/>
        <path id="Tracé_287" data-name="Tracé 287" class="cls-2" d="M10.86,55.561a1.472,1.472,0,0,0-.936.556,1.226,1.226,0,0,0,.382,1.852,1.472,1.472,0,0,0,1.08.143,1.6,1.6,0,0,0,.274-.092l-.285-1.235-.223-1.248a1.642,1.642,0,0,0-.292.024Z" transform="translate(-8.866 -9.079)"/>
        <path id="Tracé_288" data-name="Tracé 288" class="cls-2" d="M10.5,52.979a1.445,1.445,0,0,0-.967.491,1.276,1.276,0,0,0-.294.994,1.213,1.213,0,0,0,.55.883,1.493,1.493,0,0,0,1.074.216,1.588,1.588,0,0,0,.279-.074c-.036-.208-.077-.415-.109-.624l-.08-.629L10.8,52.979a1.627,1.627,0,0,0-.293,0Z" transform="translate(-8.866 -9.079)"/>
        <path id="Tracé_289" data-name="Tracé 289" class="cls-2" d="M10.34,50.378a1.492,1.492,0,0,0-1.009.425,1.219,1.219,0,0,0-.294.441,1.256,1.256,0,0,0-.074.53,1.282,1.282,0,0,0,.491.915,1.447,1.447,0,0,0,1.048.291,1.6,1.6,0,0,0,.284-.055l-.1-1.264-.047-.632-.016-.634a1.634,1.634,0,0,0-.285-.016Z" transform="translate(-8.866 -9.079)"/>
        <path id="Tracé_290" data-name="Tracé 290" class="cls-2" d="M10.34,47.773a1.472,1.472,0,0,0-1.029.357,1.225,1.225,0,0,0,0,1.89,1.472,1.472,0,0,0,1.029.357,1.6,1.6,0,0,0,.287-.035l-.032-1.267.032-1.267a1.639,1.639,0,0,0-.287-.035Z" transform="translate(-8.866 -9.079)"/>
        <path id="Tracé_291" data-name="Tracé 291" class="cls-2" d="M10.5,45.172a1.447,1.447,0,0,0-1.044.289,1.281,1.281,0,0,0-.491.915,1.256,1.256,0,0,0,.074.531,1.219,1.219,0,0,0,.294.442,1.492,1.492,0,0,0,1.009.426,1.588,1.588,0,0,0,.288-.017l.016-.634.047-.632.1-1.264a1.648,1.648,0,0,0-.291-.055Z" transform="translate(-8.866 -9.079)"/>
        <path id="Tracé_292" data-name="Tracé 292" class="cls-2" d="M10.86,42.591a1.493,1.493,0,0,0-1.074.216,1.212,1.212,0,0,0-.55.883,1.276,1.276,0,0,0,.294.994,1.445,1.445,0,0,0,.967.491,1.583,1.583,0,0,0,.288,0l.159-1.257.08-.629c.032-.209.074-.416.109-.624A1.633,1.633,0,0,0,10.86,42.591Z" transform="translate(-8.866 -9.079)"/>
        <path id="Tracé_293" data-name="Tracé 293" class="cls-2" d="M11.386,40.039a1.472,1.472,0,0,0-1.08.143,1.226,1.226,0,0,0-.379,1.853,1.472,1.472,0,0,0,.936.556,1.6,1.6,0,0,0,.289.023l.223-1.248.285-1.235a1.64,1.64,0,0,0-.274-.092Z" transform="translate(-8.866 -9.079)"/>
        <path id="Tracé_294" data-name="Tracé 294" class="cls-2" d="M12.073,37.526a1.548,1.548,0,0,0-.568-.069,1.374,1.374,0,0,0-.516.14,1.276,1.276,0,0,0-.665.8,1.214,1.214,0,0,0,.16,1.026,1.493,1.493,0,0,0,.9.62,1.589,1.589,0,0,0,.286.042c.048-.205.092-.412.144-.616l.174-.61c.117-.406.228-.814.348-1.218a1.628,1.628,0,0,0-.265-.113Z" transform="translate(-8.866 -9.079)"/>
        <path id="Tracé_295" data-name="Tracé 295" class="cls-2" d="M12.94,35.072a1.485,1.485,0,0,0-1.093-.006,1.353,1.353,0,0,0-.446.29,1.252,1.252,0,0,0-.275.459,1.285,1.285,0,0,0,.1,1.035,1.449,1.449,0,0,0,.847.676,1.6,1.6,0,0,0,.283.061l.405-1.2.1-.3c.033-.1.067-.2.108-.294L13.2,35.2a1.636,1.636,0,0,0-.258-.132Z" transform="translate(-8.866 -9.079)"/>
        <path id="Tracé_296" data-name="Tracé 296" class="cls-2" d="M13.965,32.676a1.46,1.46,0,0,0-1.08-.078,1.294,1.294,0,0,0-.777.695,1.08,1.08,0,0,0-.083.26,1.292,1.292,0,0,0-.016.268,1.34,1.34,0,0,0,.13.513,1.472,1.472,0,0,0,.806.735,1.6,1.6,0,0,0,.278.08l.233-.589c.079-.2.151-.393.242-.589l.522-1.154A1.644,1.644,0,0,0,13.965,32.676Z" transform="translate(-8.866 -9.079)"/>
        <path id="Tracé_297" data-name="Tracé 297" class="cls-2" d="M15.154,30.358a1.5,1.5,0,0,0-1.087-.156,1.27,1.27,0,0,0-.863,1.683,1.5,1.5,0,0,0,.76.79,1.586,1.586,0,0,0,.271.1l.131-.289.144-.282.289-.564.289-.564c.049-.1.1-.188.146-.281l.158-.275a1.632,1.632,0,0,0-.238-.161Z" transform="translate(-8.866 -9.079)"/>
        <path id="Tracé_298" data-name="Tracé 298" class="cls-2" d="M16.5,28.127a1.472,1.472,0,0,0-1.067-.225,1.338,1.338,0,0,0-.491.2,1.117,1.117,0,0,0-.373.393,1.3,1.3,0,0,0-.11,1.037,1.46,1.46,0,0,0,.7.835,1.6,1.6,0,0,0,.264.117l.632-1.1c.1-.186.223-.358.335-.538l.343-.534A1.639,1.639,0,0,0,16.5,28.127Z" transform="translate(-8.866 -9.079)"/>
        <path id="Tracé_299" data-name="Tracé 299" class="cls-2" d="M17.981,25.984a1.447,1.447,0,0,0-1.044-.294,1.281,1.281,0,0,0-.894.529,1.256,1.256,0,0,0-.211.491,1.276,1.276,0,0,0,.024.529,1.488,1.488,0,0,0,.644.883,1.59,1.59,0,0,0,.255.134l.342-.534c.117-.176.243-.345.365-.518L18.2,26.17a1.637,1.637,0,0,0-.214-.186Z" transform="translate(-8.866 -9.079)"/>
        <path id="Tracé_300" data-name="Tracé 300" class="cls-2" d="M19.62,23.958a1.486,1.486,0,0,0-1.03-.368,1.322,1.322,0,0,0-.515.126,1.255,1.255,0,0,0-.412.342,1.283,1.283,0,0,0-.255,1.008,1.448,1.448,0,0,0,.574.919,1.6,1.6,0,0,0,.246.152l.785-1c.133-.165.257-.336.393-.491l.415-.479a1.635,1.635,0,0,0-.2-.212Z" transform="translate(-8.866 -9.079)"/>
        <path id="Tracé_301" data-name="Tracé 301" class="cls-2" d="M21.38,22.037a1.459,1.459,0,0,0-1-.431,1.293,1.293,0,0,0-.963.4,1.1,1.1,0,0,0-.165.218,1.291,1.291,0,0,0-.1.247A1.34,1.34,0,0,0,19.1,23a1.472,1.472,0,0,0,.516.961,1.594,1.594,0,0,0,.236.168l.415-.479c.138-.159.274-.322.423-.472l.875-.918A1.644,1.644,0,0,0,21.38,22.037Z" transform="translate(-8.866 -9.079)"/>
        <path id="Tracé_302" data-name="Tracé 302" class="cls-2" d="M23.27,20.243a1.5,1.5,0,0,0-.974-.505,1.256,1.256,0,0,0-.982.345,1.276,1.276,0,0,0-.393.959,1.488,1.488,0,0,0,.454,1,1.585,1.585,0,0,0,.223.183l.219-.229.23-.219.458-.438c.308-.29.6-.589.93-.861a1.631,1.631,0,0,0-.167-.231Z" transform="translate(-8.866 -9.079)"/>
        <path id="Tracé_303" data-name="Tracé 303" class="cls-2" d="M25.275,18.58a1.472,1.472,0,0,0-.932-.563,1.267,1.267,0,0,0-1.009.264,1.3,1.3,0,0,0-.446.944,1.462,1.462,0,0,0,.381,1.019,1.6,1.6,0,0,0,.211.2l.96-.829c.325-.27.663-.524.993-.785A1.64,1.64,0,0,0,25.275,18.58Z" transform="translate(-8.866 -9.079)"/>
        <path id="Tracé_304" data-name="Tracé 304" class="cls-2" d="M27.384,17.047a1.547,1.547,0,0,0-.4-.409,1.381,1.381,0,0,0-.491-.214,1.276,1.276,0,0,0-1.018.206,1.211,1.211,0,0,0-.515.9,1.49,1.49,0,0,0,.316,1.048,1.589,1.589,0,0,0,.2.211l.5-.393.516-.367c.345-.243.687-.491,1.035-.732a1.627,1.627,0,0,0-.137-.252Z" transform="translate(-8.866 -9.079)"/>
        <path id="Tracé_305" data-name="Tracé 305" class="cls-2" d="M29.6,15.675a1.484,1.484,0,0,0-.85-.687,1.352,1.352,0,0,0-.529-.052,1.218,1.218,0,0,0-.5.186,1.285,1.285,0,0,0-.572.869,1.45,1.45,0,0,0,.241,1.057,1.6,1.6,0,0,0,.183.225l1.067-.687.267-.171.133-.085.137-.079.55-.316a1.636,1.636,0,0,0-.125-.259Z" transform="translate(-8.866 -9.079)"/>
        <path id="Tracé_306" data-name="Tracé 306" class="cls-2" d="M31.892,14.443a1.458,1.458,0,0,0-.8-.736,1.292,1.292,0,0,0-1.04.059,1.055,1.055,0,0,0-.408.349,1.342,1.342,0,0,0-.22.482,1.472,1.472,0,0,0,.171,1.08,1.594,1.594,0,0,0,.167.236l.55-.316.275-.158c.091-.053.187-.1.281-.146L32,14.713A1.645,1.645,0,0,0,31.892,14.443Z" transform="translate(-8.866 -9.079)"/>
        <path id="Tracé_307" data-name="Tracé 307" class="cls-2" d="M34.269,13.376a1.5,1.5,0,0,0-.751-.8,1.254,1.254,0,0,0-1.035,0,1.276,1.276,0,0,0-.687.774,1.482,1.482,0,0,0,.1,1.089,1.585,1.585,0,0,0,.15.246c.1-.047.186-.1.283-.142l.289-.131.577-.261c.386-.171.766-.358,1.162-.5a1.633,1.633,0,0,0-.085-.273Z" transform="translate(-8.866 -9.079)"/>
        <path id="Tracé_308" data-name="Tracé 308" class="cls-2" d="M36.709,12.474a1.472,1.472,0,0,0-.693-.842,1.337,1.337,0,0,0-.506-.155,1.128,1.128,0,0,0-.534.069,1.3,1.3,0,0,0-.733.743,1.461,1.461,0,0,0,.022,1.088,1.6,1.6,0,0,0,.133.256l1.178-.465.147-.058.15-.051.3-.1.6-.2A1.64,1.64,0,0,0,36.709,12.474Z" transform="translate(-8.866 -9.079)"/>
        <path id="Tracé_309" data-name="Tracé 309" class="cls-2" d="M39.209,11.727a1.447,1.447,0,0,0-.632-.883,1.282,1.282,0,0,0-1.029-.145,1.256,1.256,0,0,0-.473.252,1.276,1.276,0,0,0-.312.428,1.488,1.488,0,0,0-.05,1.093,1.59,1.59,0,0,0,.115.265l.6-.2c.2-.065.405-.117.609-.177l1.219-.346a1.649,1.649,0,0,0-.046-.284Z" transform="translate(-8.866 -9.079)"/>
        <path id="Tracé_310" data-name="Tracé 310" class="cls-2" d="M41.754,11.172a1.492,1.492,0,0,0-.573-.933,1.209,1.209,0,0,0-1.016-.213,1.276,1.276,0,0,0-.83.625,1.445,1.445,0,0,0-.127,1.08,1.583,1.583,0,0,0,.1.271l1.235-.285.617-.142.624-.112A1.635,1.635,0,0,0,41.754,11.172Z" transform="translate(-8.866 -9.079)"/>
        <path id="Tracé_311" data-name="Tracé 311" class="cls-2" d="M44.329,10.78a1.472,1.472,0,0,0-.507-.963,1.227,1.227,0,0,0-1.865.284,1.472,1.472,0,0,0-.2,1.071,1.6,1.6,0,0,0,.079.278l1.248-.222,1.257-.16a1.641,1.641,0,0,0-.015-.288Z" transform="translate(-8.866 -9.079)"/>
        <path id="Tracé_312" data-name="Tracé 312" class="cls-2" d="M46.925,10.553a1.445,1.445,0,0,0-.442-.99,1.276,1.276,0,0,0-.982-.349,1.213,1.213,0,0,0-.9.5,1.494,1.494,0,0,0-.27,1.062,1.589,1.589,0,0,0,.06.283c.21-.026.419-.056.629-.078l.632-.048,1.264-.1a1.627,1.627,0,0,0,.011-.285Z" transform="translate(-8.866 -9.079)"/>
        <path id="Tracé_313" data-name="Tracé 313" class="cls-2" d="M49.531,10.52a1.493,1.493,0,0,0-.375-1.03,1.208,1.208,0,0,0-.952-.412,1.276,1.276,0,0,0-.938.443,1.447,1.447,0,0,0-.341,1.029,1.6,1.6,0,0,0,.04.287l1.267-.031.634-.017.634.016a1.633,1.633,0,0,0,.03-.284Z" transform="translate(-8.866 -9.079)"/>
        <path id="Tracé_314" data-name="Tracé 314" class="cls-2" d="M52.133,10.65a1.472,1.472,0,0,0-.309-1.045,1.226,1.226,0,0,0-1.888-.1,1.472,1.472,0,0,0-.408,1.009,1.6,1.6,0,0,0,.022.289l1.267.031,1.264.1A1.641,1.641,0,0,0,52.133,10.65Z" transform="translate(-8.866 -9.079)"/>
        <path id="Tracé_315" data-name="Tracé 315" class="cls-2" d="M54.723,10.944a1.447,1.447,0,0,0-.236-1.057,1.281,1.281,0,0,0-.888-.539,1.256,1.256,0,0,0-.534.046,1.231,1.231,0,0,0-.455.27,1.491,1.491,0,0,0-.476.982,1.589,1.589,0,0,0,0,.289l.632.048.629.079,1.257.16a1.648,1.648,0,0,0,.071-.277Z" transform="translate(-8.866 -9.079)"/>
        <path id="Tracé_316" data-name="Tracé 316" class="cls-2" d="M57.281,11.433a1.492,1.492,0,0,0-.161-1.08,1.21,1.21,0,0,0-.851-.595,1.276,1.276,0,0,0-1.01.245,1.445,1.445,0,0,0-.539.94,1.583,1.583,0,0,0-.018.288l1.248.223.624.111.617.141a1.634,1.634,0,0,0,.089-.274Z" transform="translate(-8.866 -9.079)"/>
        <path id="Tracé_317" data-name="Tracé 317" class="cls-2" d="M59.8,12.082A1.466,1.466,0,0,0,59.715,11a1.228,1.228,0,0,0-1.831-.473,1.472,1.472,0,0,0-.6.907,1.6,1.6,0,0,0-.037.287L58.48,12l1.219.346a1.642,1.642,0,0,0,.105-.269Z" transform="translate(-8.866 -9.079)"/>
        <path id="Tracé_318" data-name="Tracé 318" class="cls-2" d="M62.278,12.9a1.454,1.454,0,0,0-.015-1.089,1.276,1.276,0,0,0-.763-.7,1.257,1.257,0,0,0-.785-.007,1.353,1.353,0,0,0-.242.114,1.494,1.494,0,0,0-.665.871,1.588,1.588,0,0,0-.056.283c.2.06.407.111.609.178l.6.2.6.2.3.1c.1.033.2.066.294.107a1.629,1.629,0,0,0,.124-.257Z" transform="translate(-8.866 -9.079)"/>
        <path id="Tracé_319" data-name="Tracé 319" class="cls-2" d="M64.682,13.893a1.483,1.483,0,0,0,.061-1.091,1.351,1.351,0,0,0-.267-.459,1.178,1.178,0,0,0-.444-.3,1.287,1.287,0,0,0-1.04.043,1.452,1.452,0,0,0-.718.813,1.6,1.6,0,0,0-.076.279c.785.315,1.579.6,2.342.968a1.636,1.636,0,0,0,.142-.251Z" transform="translate(-8.866 -9.079)"/>
        <path id="Tracé_320" data-name="Tracé 320" class="cls-2" d="M67.027,15.037a1.457,1.457,0,0,0,.132-1.08,1.291,1.291,0,0,0-.656-.81,1.267,1.267,0,0,0-.255-.1,1.135,1.135,0,0,0-.266-.03,1.344,1.344,0,0,0-.52.1,1.477,1.477,0,0,0-.775.769,1.593,1.593,0,0,0-.1.273l.585.264.289.131c.1.046.188.1.283.143l1.128.578a1.646,1.646,0,0,0,.155-.243Z" transform="translate(-8.866 -9.079)"/>
        <path id="Tracé_321" data-name="Tracé 321" class="cls-2" d="M69.279,16.344a1.5,1.5,0,0,0,.21-1.08,1.245,1.245,0,0,0-.606-.841,1.276,1.276,0,0,0-1.032-.106,1.472,1.472,0,0,0-.826.716,1.585,1.585,0,0,0-.112.265c.19.092.372.2.555.305l.55.316c.365.212.737.414,1.088.65a1.631,1.631,0,0,0,.174-.225Z" transform="translate(-8.866 -9.079)"/>
        <path id="Tracé_322" data-name="Tracé 322" class="cls-2" d="M71.441,17.8a1.472,1.472,0,0,0,.278-1.053,1.276,1.276,0,0,0-.537-.9,1.3,1.3,0,0,0-1.032-.16,1.463,1.463,0,0,0-.87.654,1.6,1.6,0,0,0-.131.258l1.067.687c.348.239.687.491,1.035.731A1.64,1.64,0,0,0,71.441,17.8Z" transform="translate(-8.866 -9.079)"/>
        <path id="Tracé_323" data-name="Tracé 323" class="cls-2" d="M73.5,19.39a1.558,1.558,0,0,0,.28-.5,1.374,1.374,0,0,0,.067-.531,1.276,1.276,0,0,0-.485-.918,1.215,1.215,0,0,0-1.01-.24,1.491,1.491,0,0,0-.917.6,1.589,1.589,0,0,0-.147.248c.172.123.346.243.515.368l.5.393c.331.263.667.518.994.785a1.627,1.627,0,0,0,.2-.205Z" transform="translate(-8.866 -9.079)"/>
        <path id="Tracé_324" data-name="Tracé 324" class="cls-2" d="M75.446,21.127a1.482,1.482,0,0,0,.419-1.006,1.349,1.349,0,0,0-.1-.521,1.171,1.171,0,0,0-.319-.431,1.286,1.286,0,0,0-1-.3,1.452,1.452,0,0,0-.947.528,1.6,1.6,0,0,0-.164.239c.635.558,1.29,1.093,1.889,1.69a1.636,1.636,0,0,0,.215-.2Z" transform="translate(-8.866 -9.079)"/>
        <path id="Tracé_325" data-name="Tracé 325" class="cls-2" d="M77.278,22.98a1.456,1.456,0,0,0,.48-.974,1.29,1.29,0,0,0-.351-.982,1.221,1.221,0,0,0-.974-.368,1.478,1.478,0,0,0-.982.468,1.593,1.593,0,0,0-.18.227l.458.438.23.219.219.23.875.918A1.645,1.645,0,0,0,77.278,22.98Z" transform="translate(-8.866 -9.079)"/>
        <path id="Tracé_326" data-name="Tracé 326" class="cls-2" d="M78.973,24.959a1.5,1.5,0,0,0,.553-.946,1.184,1.184,0,0,0-.035-.524,1.259,1.259,0,0,0-.257-.47,1.276,1.276,0,0,0-.939-.44,1.35,1.35,0,0,0-.265.02,1.48,1.48,0,0,0-.265.077,1.555,1.555,0,0,0-.485.3,1.585,1.585,0,0,0-.2.213c.149.149.282.314.422.473l.415.479.415.479a3.07,3.07,0,0,1,.2.245l.2.249a1.632,1.632,0,0,0,.245-.159Z" transform="translate(-8.866 -9.079)"/>
        <path id="Tracé_327" data-name="Tracé 327" class="cls-2" d="M80.533,27.046a1.472,1.472,0,0,0,.61-.9A1.228,1.228,0,0,0,80.01,24.63a1.466,1.466,0,0,0-1.037.33,1.6,1.6,0,0,0-.208.2l.785,1,.733,1.036a1.641,1.641,0,0,0,.25-.142Z" transform="translate(-8.866 -9.079)"/>
        <path id="Tracé_328" data-name="Tracé 328" class="cls-2" d="M81.957,29.229a1.459,1.459,0,0,0,.669-.86,1.276,1.276,0,0,0-.156-1.026,1.258,1.258,0,0,0-.611-.5,1.365,1.365,0,0,0-.26-.063,1.494,1.494,0,0,0-1.063.264,1.588,1.588,0,0,0-.221.186c.121.174.248.342.364.519l.342.534.342.534.171.267.085.133.079.137A1.628,1.628,0,0,0,81.957,29.229Z" transform="translate(-8.866 -9.079)"/>
        <path id="Tracé_329" data-name="Tracé 329" class="cls-2" d="M83.216,31.507a1.481,1.481,0,0,0,.728-.814,1.213,1.213,0,0,0-.079-1.037,1.288,1.288,0,0,0-.84-.614,1.453,1.453,0,0,0-1.069.187,1.6,1.6,0,0,0-.234.171l.626,1.1.158.275c.054.091.1.187.147.281l.289.564a1.637,1.637,0,0,0,.273-.111Z" transform="translate(-8.866 -9.079)"/>
        <path id="Tracé_330" data-name="Tracé 330" class="cls-2" d="M84.331,33.862a1.455,1.455,0,0,0,.775-.76,1.289,1.289,0,0,0-.008-1.041,1.217,1.217,0,0,0-.8-.669,1.48,1.48,0,0,0-1.086.115,1.593,1.593,0,0,0-.244.154l.289.564c.047.1.1.187.143.283l.131.289.522,1.154A1.646,1.646,0,0,0,84.331,33.862Z" transform="translate(-8.866 -9.079)"/>
        <path id="Tracé_331" data-name="Tracé 331" class="cls-2" d="M85.273,36.292a1.5,1.5,0,0,0,.836-.709,1.188,1.188,0,0,0,.139-.506,1.26,1.26,0,0,0-.086-.529,1.276,1.276,0,0,0-.74-.726,1.347,1.347,0,0,0-.256-.069,1.472,1.472,0,0,0-.276-.016,1.556,1.556,0,0,0-.558.127,1.584,1.584,0,0,0-.253.137c.091.19.162.393.24.589l.233.589.233.589.058.147.051.15.1.3A1.634,1.634,0,0,0,85.273,36.292Z" transform="translate(-8.866 -9.079)"/>
        <path id="Tracé_332" data-name="Tracé 332" class="cls-2" d="M86.051,38.778a1.472,1.472,0,0,0,.876-.649,1.276,1.276,0,0,0,.14-1.035,1.3,1.3,0,0,0-.706-.77,1.464,1.464,0,0,0-1.088-.033,1.6,1.6,0,0,0-.263.12l.406,1.2c.124.4.233.812.349,1.218A1.641,1.641,0,0,0,86.051,38.778Z" transform="translate(-8.866 -9.079)"/>
        <path id="Tracé_333" data-name="Tracé 333" class="cls-2" d="M86.668,41.309a1.446,1.446,0,0,0,.911-.589,1.276,1.276,0,0,0,.2-1.02,1.258,1.258,0,0,0-.229-.485,1.222,1.222,0,0,0-.41-.335,1.49,1.49,0,0,0-1.089-.105,1.59,1.59,0,0,0-.27.1l.174.61.143.617.286,1.235a1.647,1.647,0,0,0,.289-.026Z" transform="translate(-8.866 -9.079)"/>
        <path id="Tracé_334" data-name="Tracé 334" class="cls-2" d="M87.093,43.88a1.491,1.491,0,0,0,.961-.525,1.221,1.221,0,0,0,.245-.468,1.256,1.256,0,0,0,.02-.535,1.281,1.281,0,0,0-.582-.861,1.446,1.446,0,0,0-1.069-.182,1.6,1.6,0,0,0-.277.083l.223,1.248.111.624.079.629A1.634,1.634,0,0,0,87.093,43.88Z" transform="translate(-8.866 -9.079)"/>
        <path id="Tracé_335" data-name="Tracé 335" class="cls-2" d="M87.355,46.472a1.472,1.472,0,0,0,.987-.458,1.227,1.227,0,0,0-.188-1.882,1.472,1.472,0,0,0-1.06-.252,1.6,1.6,0,0,0-.282.064L86.97,45.2l.1,1.264a1.642,1.642,0,0,0,.287.007Z" transform="translate(-8.866 -9.079)"/>
        <path id="Tracé_336" data-name="Tracé 336" class="cls-2" d="M87.453,49.076a1.446,1.446,0,0,0,1.01-.393,1.276,1.276,0,0,0,.4-.959,1.212,1.212,0,0,0-.458-.93,1.494,1.494,0,0,0-1.047-.322,1.589,1.589,0,0,0-.285.045c.015.211.034.421.046.632l.016.634.032,1.267A1.648,1.648,0,0,0,87.453,49.076Z" transform="translate(-8.866 -9.079)"/>
        <path id="Tracé_337" data-name="Tracé 337" class="cls-2" d="M46.076,59.48c6.266,4.672,13.784,2.42,18.687-3.078,6.266-7.032,7.2-20.292.8-27.694-7.009-8.112-20.71-8.364-29.236-2.668a19.168,19.168,0,0,0-8.27,13.066c-.687,4.2-.158,13.233,5.3,14.806,4.865,1.4,4.39-3.766,3.413-6.858-1.689-5.339-1.962-8.677,1.82-13.23,4.982-6,16.48-7.037,21.182.139,3.1,4.732.253,19.991-6.95,20.6-8.7.731-.021-13.82-1.912-18.014-2.68-5.94-9.861-.836-10.852,3.73-.517,2.384.466,4.429.437,6.724-.037,2.86-1.528,6.085-2.217,8.8-1.121,4.417-4.432,14.477-2.061,18.845C40.259,82.091,45.855,61.921,46.076,59.48Z" transform="translate(-8.866 -9.079)"/>
      </g>
    </g>
  </g>
</svg>
