<svg xmlns="http://www.w3.org/2000/svg" xmlns:xlink="http://www.w3.org/1999/xlink" viewBox="0 0 829 15">
  <defs>
    <style>
      .cls-1 {
        fill: none;
      }

      .cls-2 {
        clip-path: url(#clip-path);
      }

      .cls-3 {
        fill: #a7ffeb;
      }
    </style>
    <clipPath id="clip-path">
      <rect class="cls-1" width="829" height="15"/>
    </clipPath>
  </defs>
  <g id="Grille_de_répétition_1" data-name="Grille de répétition 1" class="cls-2">
    <g transform="translate(-274 -3179)">
      <circle id="Ellipse_1" data-name="Ellipse 1" class="cls-3" cx="7.5" cy="7.5" r="7.5" transform="translate(274 3179)"/>
    </g>
    <g transform="translate(-239 -3179)">
      <circle id="Ellipse_1-2" data-name="Ellipse 1" class="cls-3" cx="7.5" cy="7.5" r="7.5" transform="translate(274 3179)"/>
    </g>
    <g transform="translate(-204 -3179)">
      <circle id="Ellipse_1-3" data-name="Ellipse 1" class="cls-3" cx="7.5" cy="7.5" r="7.5" transform="translate(274 3179)"/>
    </g>
    <g transform="translate(-169 -3179)">
      <circle id="Ellipse_1-4" data-name="Ellipse 1" class="cls-3" cx="7.5" cy="7.5" r="7.5" transform="translate(274 3179)"/>
    </g>
    <g transform="translate(-134 -3179)">
      <circle id="Ellipse_1-5" data-name="Ellipse 1" class="cls-3" cx="7.5" cy="7.5" r="7.5" transform="translate(274 3179)"/>
    </g>
    <g transform="translate(-99 -3179)">
      <circle id="Ellipse_1-6" data-name="Ellipse 1" class="cls-3" cx="7.5" cy="7.5" r="7.5" transform="translate(274 3179)"/>
    </g>
    <g transform="translate(-64 -3179)">
      <circle id="Ellipse_1-7" data-name="Ellipse 1" class="cls-3" cx="7.5" cy="7.5" r="7.5" transform="translate(274 3179)"/>
    </g>
    <g transform="translate(-29 -3179)">
      <circle id="Ellipse_1-8" data-name="Ellipse 1" class="cls-3" cx="7.5" cy="7.5" r="7.5" transform="translate(274 3179)"/>
    </g>
    <g transform="translate(6 -3179)">
      <circle id="Ellipse_1-9" data-name="Ellipse 1" class="cls-3" cx="7.5" cy="7.5" r="7.5" transform="translate(274 3179)"/>
    </g>
    <g transform="translate(41 -3179)">
      <circle id="Ellipse_1-10" data-name="Ellipse 1" class="cls-3" cx="7.5" cy="7.5" r="7.5" transform="translate(274 3179)"/>
    </g>
    <g transform="translate(76 -3179)">
      <circle id="Ellipse_1-11" data-name="Ellipse 1" class="cls-3" cx="7.5" cy="7.5" r="7.5" transform="translate(274 3179)"/>
    </g>
    <g transform="translate(111 -3179)">
      <circle id="Ellipse_1-12" data-name="Ellipse 1" class="cls-3" cx="7.5" cy="7.5" r="7.5" transform="translate(274 3179)"/>
    </g>
    <g transform="translate(146 -3179)">
      <circle id="Ellipse_1-13" data-name="Ellipse 1" class="cls-3" cx="7.5" cy="7.5" r="7.5" transform="translate(274 3179)"/>
    </g>
    <g transform="translate(181 -3179)">
      <circle id="Ellipse_1-14" data-name="Ellipse 1" class="cls-3" cx="7.5" cy="7.5" r="7.5" transform="translate(274 3179)"/>
    </g>
    <g transform="translate(216 -3179)">
      <circle id="Ellipse_1-15" data-name="Ellipse 1" class="cls-3" cx="7.5" cy="7.5" r="7.5" transform="translate(274 3179)"/>
    </g>
    <g transform="translate(251 -3179)">
      <circle id="Ellipse_1-16" data-name="Ellipse 1" class="cls-3" cx="7.5" cy="7.5" r="7.5" transform="translate(274 3179)"/>
    </g>
    <g transform="translate(286 -3179)">
      <circle id="Ellipse_1-17" data-name="Ellipse 1" class="cls-3" cx="7.5" cy="7.5" r="7.5" transform="translate(274 3179)"/>
    </g>
    <g transform="translate(321 -3179)">
      <circle id="Ellipse_1-18" data-name="Ellipse 1" class="cls-3" cx="7.5" cy="7.5" r="7.5" transform="translate(274 3179)"/>
    </g>
    <g transform="translate(356 -3179)">
      <circle id="Ellipse_1-19" data-name="Ellipse 1" class="cls-3" cx="7.5" cy="7.5" r="7.5" transform="translate(274 3179)"/>
    </g>
    <g transform="translate(391 -3179)">
      <circle id="Ellipse_1-20" data-name="Ellipse 1" class="cls-3" cx="7.5" cy="7.5" r="7.5" transform="translate(274 3179)"/>
    </g>
    <g transform="translate(426 -3179)">
      <circle id="Ellipse_1-21" data-name="Ellipse 1" class="cls-3" cx="7.5" cy="7.5" r="7.5" transform="translate(274 3179)"/>
    </g>
    <g transform="translate(461 -3179)">
      <circle id="Ellipse_1-22" data-name="Ellipse 1" class="cls-3" cx="7.5" cy="7.5" r="7.5" transform="translate(274 3179)"/>
    </g>
    <g transform="translate(496 -3179)">
      <circle id="Ellipse_1-23" data-name="Ellipse 1" class="cls-3" cx="7.5" cy="7.5" r="7.5" transform="translate(274 3179)"/>
    </g>
    <g transform="translate(531 -3179)">
      <circle id="Ellipse_1-24" data-name="Ellipse 1" class="cls-3" cx="7.5" cy="7.5" r="7.5" transform="translate(274 3179)"/>
    </g>
  </g>
</svg>
